<?xml version="1.0" encoding="UTF-8"?>
<svg version="1.1" xmlns="http://www.w3.org/2000/svg" width="500" height="500">
<path d="M0 0 C0.93585938 0.62455078 0.93585938 0.62455078 1.890625 1.26171875 C11.72669405 8.63877054 17.61456136 22.24833366 20 34 C20.55270662 38.14387271 20.74158435 42.26404503 20.859375 46.44140625 C20.91536711 49.90255663 20.91536711 49.90255663 21.51171875 52.87890625 C22.16604899 57.06138514 22.10630166 61.1498244 22.0625 65.375 C22.05798828 66.20644531 22.05347656 67.03789063 22.04882812 67.89453125 C22.03713164 69.92971897 22.01919935 71.96486923 22 74 C22.61480225 74.14550293 23.22960449 74.29100586 23.86303711 74.44091797 C33.36863896 76.92781712 41.9394079 83.62627193 50 89 C50 89.66 50 90.32 50 91 C51.65 91.66 53.3 92.32 55 93 C55 93.66 55 94.32 55 95 C55.66 95 56.32 95 57 95 C57 95.66 57 96.32 57 97 C57.59031006 97.2460498 58.18062012 97.49209961 58.78881836 97.74560547 C61.33806906 99.19178523 62.55318739 100.79299967 64.37890625 103.0703125 C67.970365 106.74224515 70.4179468 107.60894422 75.52734375 107.9296875 C77.99739771 107.94766 80.46794643 107.92786555 82.9375 107.875 C85.54691233 107.89382763 88.15629576 107.9172394 90.765625 107.9453125 C92.01666016 107.94950195 93.26769531 107.95369141 94.55664062 107.95800781 C111.62407149 108.16614721 129.54313666 111.58569059 144 121 C144.83660156 121.53496094 145.67320312 122.06992188 146.53515625 122.62109375 C155.5952776 128.68451345 164.56503851 136.11463927 171 145 C171 145.66 171 146.32 171 147 C171.66 147 172.32 147 173 147 C173.66 148.98 174.32 150.96 175 153 C175.66 153 176.32 153 177 153 C185.05517442 170.62635077 191.9706945 189.20139482 190 209 C188.31496301 210.68503699 186.23740116 210.11965983 183.98905945 210.12442017 C183.27264786 210.12082489 182.55623627 210.11722961 181.81811523 210.11352539 C180.6913588 210.11374443 180.6913588 210.11374443 179.5418396 210.1139679 C177.04739541 210.11326863 174.55302497 210.10547564 172.05859375 210.09765625 C170.33366436 210.09579212 168.60873443 210.09436819 166.88380432 210.09336853 C162.33487497 210.08954297 157.78597733 210.07971238 153.23706055 210.06866455 C148.59879994 210.05845124 143.96053423 210.05387108 139.32226562 210.04882812 C130.21482978 210.03809014 121.10741752 210.02101327 112 210 C112.25037018 211.13260254 112.25037018 211.13260254 112.50579834 212.28808594 C113.1294427 215.7103122 112.88031051 218.78026685 112.640625 222.25 C110.99719968 238.35252233 110.99719968 238.35252233 115.890625 252.99609375 C118.90947822 256.20121306 122.33940504 258.58139262 126 261 C126 261.66 126 262.32 126 263 C126.57105469 263.21140625 127.14210938 263.4228125 127.73046875 263.640625 C139.938121 270.95260948 146.13463625 291.30223369 149.49121094 304.25244141 C155.46736455 328.66974146 151.31509226 354.743556 138.375 376.25 C135.85111475 380.37413124 133.22272861 384.38292908 130 388 C129.34 388 128.68 388 128 388 C127.60941406 388.87205078 127.60941406 388.87205078 127.2109375 389.76171875 C125.91871022 392.15025497 124.50719402 393.86044288 122.625 395.8125 C122.03976562 396.43769531 121.45453125 397.06289063 120.8515625 397.70703125 C119 399 119 399 117.0390625 398.9453125 C114.4064063 397.72480905 112.77463691 396.13587817 110.75 394.0625 C109.69039063 392.99708984 109.69039063 392.99708984 108.609375 391.91015625 C107 390 107 390 107 388 C106.42765625 387.7525 105.8553125 387.505 105.265625 387.25 C102.64989389 385.80683801 100.85226544 384.11783778 98.75 382 C98.04359375 381.29875 97.3371875 380.5975 96.609375 379.875 C95 378 95 378 95 376 C94.195625 375.690625 94.195625 375.690625 93.375 375.375 C90.08021991 373.46749574 87.40636372 370.95180616 85 368 C85 367.34 85 366.68 85 366 C84.195625 365.690625 84.195625 365.690625 83.375 365.375 C81.20038416 364.11601188 79.54069814 362.86790577 77.6875 361.1875 C77.15511719 360.70667969 76.62273437 360.22585938 76.07421875 359.73046875 C75 358 75 358 75.046875 355.6328125 C76.27259542 352.24701102 78.09378034 350.29530246 80.5625 347.6875 C81.38878906 346.80449219 82.21507812 345.92148437 83.06640625 345.01171875 C83.70449219 344.34785156 84.34257812 343.68398438 85 343 C88.15229086 343.57835204 89.78085538 344.40968523 92.02441406 346.68383789 C92.58469299 347.24434341 93.14497192 347.80484894 93.722229 348.38233948 C94.31404968 348.98964401 94.90587036 349.59694855 95.515625 350.22265625 C96.13145447 350.84273056 96.74728394 351.46280487 97.3817749 352.10166931 C99.34500635 354.08167905 101.29754436 356.07186919 103.25 358.0625 C104.58003748 359.40758535 105.91075879 360.75199488 107.2421875 362.09570312 C110.50277537 365.38934906 113.75381188 368.69216339 117 372 C130.02751167 355.55995324 133.66924725 336.54276453 132 316 C129.72823607 298.30295896 120.95307355 282.10550752 107 271 C106.896875 272.155 106.79375 273.31 106.6875 274.5 C106.35310046 278.2452748 105.15135698 281.4150732 103.80053711 284.88964844 C103.0502571 286.86751377 102.38399604 288.85070891 101.74609375 290.8671875 C93.64241447 315.99264979 77.22494414 340.85867963 57 358 C56.34 358 55.68 358 55 358 C55 358.66 55 359.32 55 360 C53.35 360.66 51.7 361.32 50 362 C50 362.66 50 363.32 50 364 C47.55075465 365.6979431 45.10850361 367.27198026 42.5625 368.8125 C41.83200439 369.26028809 41.10150879 369.70807617 40.34887695 370.16943359 C25.87272289 379 25.87272289 379 22 379 C21.72671875 379.72832031 21.4534375 380.45664062 21.171875 381.20703125 C20.04905484 383.88308595 18.76813354 386.2184925 17.25 388.6875 C16.72535156 389.54859375 16.20070313 390.4096875 15.66015625 391.296875 C15.11230469 392.18890625 14.56445312 393.0809375 14 394 C12.89268358 395.81057743 11.78839582 397.62301146 10.6875 399.4375 C10.19636719 400.24058594 9.70523438 401.04367187 9.19921875 401.87109375 C7.87010992 404.07286228 7.87010992 404.07286228 7 407 C6.34 407 5.68 407 5 407 C4.89558594 407.5465625 4.79117188 408.093125 4.68359375 408.65625 C3.84407207 411.53461006 2.53047453 413.88707713 1.0625 416.5 C-0.69228371 419.63877775 -2.42217868 422.7681341 -4 426 C-4.66 426 -5.32 426 -6 426 C-6.1546875 426.8353125 -6.1546875 426.8353125 -6.3125 427.6875 C-8.09845944 433.69481813 -11.54680072 436.8118383 -16.84765625 439.82421875 C-23.63660944 442.35640575 -31.91522289 442.33125048 -38.8046875 440.0859375 C-41 439 -41 439 -44 437 C-44 436.34 -44 435.68 -44 435 C-44.66 435 -45.32 435 -46 435 C-47.515625 432.9453125 -47.515625 432.9453125 -49.25 430.125 C-49.87261719 429.11695313 -50.49523437 428.10890625 -51.13671875 427.0703125 C-52.05904297 425.55050781 -52.05904297 425.55050781 -53 424 C-53.52207031 423.15179688 -54.04414063 422.30359375 -54.58203125 421.4296875 C-57.08471515 417.32238042 -59.46975775 413.17223561 -61.75 408.9375 C-65.24065755 402.46543202 -68.98770123 396.14852511 -72.73046875 389.8203125 C-73.12024902 389.16063477 -73.5100293 388.50095703 -73.91162109 387.82128906 C-74.85557346 386.24168281 -75.82587672 384.67788066 -76.80078125 383.1171875 C-78 381 -78 381 -78 379 C-78.68449219 378.74476563 -79.36898437 378.48953125 -80.07421875 378.2265625 C-83.44961726 376.81150892 -86.59974038 375.12741434 -89.8125 373.375 C-90.7087207 372.88773437 -90.7087207 372.88773437 -91.62304688 372.390625 C-93.08337135 371.59620849 -94.54187491 370.79844624 -96 370 C-96 369.34 -96 368.68 -96 368 C-97.09441406 367.61328125 -97.09441406 367.61328125 -98.2109375 367.21875 C-101.10562533 365.95384439 -103.17811214 364.48441765 -105.625 362.5 C-108.04787381 360.54847024 -110.40757162 358.72828558 -113 357 C-113 356.34 -113 355.68 -113 355 C-113.66 355 -114.32 355 -115 355 C-115 354.34 -115 353.68 -115 353 C-115.66 353 -116.32 353 -117 353 C-117 352.34 -117 351.68 -117 351 C-117.66 351 -118.32 351 -119 351 C-119 350.34 -119 349.68 -119 349 C-119.66 349 -120.32 349 -121 349 C-121 348.34 -121 347.68 -121 347 C-122.14926266 347.95421808 -123.29430541 348.91352045 -124.4375 349.875 C-125.07558594 350.40867187 -125.71367187 350.94234375 -126.37109375 351.4921875 C-128.10805004 352.9222757 -128.10805004 352.9222757 -129 355 C-129.66 355 -130.32 355 -131 355 C-131.23589844 355.56460937 -131.47179687 356.12921875 -131.71484375 356.7109375 C-133.29234942 359.52071963 -135.24051286 361.39619051 -137.5625 363.625 C-140.69042054 366.51070681 -140.69042054 366.51070681 -143 370 C-143.66 370 -144.32 370 -145 370 C-145.226875 370.556875 -145.45375 371.11375 -145.6875 371.6875 C-147.37051013 374.65280356 -149.55922345 376.6182465 -152 379 C-153.75123308 380.72791784 -155.50124698 382.45707224 -157.25 384.1875 C-158.12140625 385.04730469 -158.9928125 385.90710938 -159.890625 386.79296875 C-162.02994238 388.81431066 -162.02994238 388.81431066 -163 391 C-163.66 391 -164.32 391 -165 391 C-165 391.66 -165 392.32 -165 393 C-165.66 393 -166.32 393 -167 393 C-167.37125 393.86625 -167.37125 393.86625 -167.75 394.75 C-169.16683317 397.3002997 -170.87627537 399.01785701 -173 401 C-176.63061667 399.46781315 -178.9863773 397.2816856 -181.75 394.5 C-182.54921875 393.7059375 -183.3484375 392.911875 -184.171875 392.09375 C-186 390 -186 390 -186 388 C-186.66 388 -187.32 388 -188 388 C-189.52373457 385.96733809 -190.89915849 383.95699937 -192.25 381.8125 C-192.85171021 380.86225952 -192.85171021 380.86225952 -193.46557617 379.89282227 C-206.97728416 358.11538312 -211.87601519 332.47646852 -206.8125 307.1875 C-206.26064808 305.11039069 -205.65809465 303.04593134 -205 301 C-204.48953125 299.40091797 -204.48953125 299.40091797 -203.96875 297.76953125 C-197.31537761 278.95577215 -185.57030241 265.00345762 -171.2890625 251.421875 C-167.53125391 247.44603656 -166.77122569 244.89871849 -166.87547302 239.36619568 C-166.89852005 238.63175735 -166.92156708 237.89731903 -166.9453125 237.140625 C-166.9740014 235.54469715 -167.001544 233.94874837 -167.02807617 232.3527832 C-167.04470306 231.51913239 -167.06132996 230.68548157 -167.07846069 229.8265686 C-167.4750072 207.87245374 -165.80930156 186.49734336 -157.71484375 165.84179688 C-157.02080049 164.05359252 -156.39970866 162.23760619 -155.78125 160.421875 C-151.76252385 148.90479397 -146.0947315 138.54294184 -140 128 C-158.48177564 127.32452394 -175.97104919 129.1554055 -191.26953125 140.71484375 C-193 142 -193 142 -195 142 C-195 142.66 -195 143.32 -195 144 C-199.47058824 148 -199.47058824 148 -202 148 C-202.25265625 148.56589844 -202.5053125 149.13179687 -202.765625 149.71484375 C-204.1646626 152.30483424 -205.84385443 154.32019309 -207.75 156.5625 C-216.57098827 167.49285503 -221.01954558 179.13681903 -223 193 C-199.735 193.495 -199.735 193.495 -176 194 C-176.66666667 200 -177.33333333 206 -178 212 C-199.45 212 -220.9 212 -243 212 C-243 183.69821921 -238.05303443 159.2516066 -218 138 C-217.34 138 -216.68 138 -216 138 C-216 137.34 -216 136.68 -216 136 C-215.34 136 -214.68 136 -214 136 C-214 135.34 -214 134.68 -214 134 C-213.34 134 -212.68 134 -212 134 C-212 133.34 -212 132.68 -212 132 C-211.34 132 -210.68 132 -210 132 C-210 131.34 -210 130.68 -210 130 C-207.71917369 128.30215169 -205.44586651 126.72949582 -203.0625 125.1875 C-202.02198486 124.51037964 -202.02198486 124.51037964 -200.96044922 123.81958008 C-199.58442237 122.92993804 -198.20557253 122.0446449 -196.82373047 121.1640625 C-195.40584121 120.25904295 -193.99935081 119.33615468 -192.59765625 118.40625 C-175.25622772 107.69233772 -152.99760454 107.84467441 -133.35620117 107.34082031 C-131.60593628 107.29393066 -131.60593628 107.29393066 -129.8203125 107.24609375 C-128.24660889 107.21020142 -128.24660889 107.21020142 -126.64111328 107.17358398 C-123.892586 107.1049343 -123.892586 107.1049343 -121 106 C-120.71125 105.41734375 -120.4225 104.8346875 -120.125 104.234375 C-118.6095835 101.22458946 -116.50954087 99.48232414 -114 97.25 C-113.113125 96.45078125 -112.22625 95.6515625 -111.3125 94.828125 C-109 93 -109 93 -107 93 C-107 92.34 -107 91.68 -107 91 C-104.525 90.01 -104.525 90.01 -102 89 C-102 88.34 -102 87.68 -102 87 C-99.75849376 85.3595846 -97.5321169 83.85337913 -95.1875 82.375 C-94.54490234 81.95476562 -93.90230469 81.53453125 -93.24023438 81.1015625 C-88.38145546 78 -88.38145546 78 -85 78 C-85.0141394 76.95078369 -85.0141394 76.95078369 -85.02856445 75.88037109 C-85.08903117 67.76454217 -84.7309532 59.72116892 -84.1875 51.625 C-84.08211914 49.80742188 -84.08211914 49.80742188 -83.97460938 47.953125 C-82.71490261 29.04744582 -78.57618478 13.84092469 -64 1 C-44.58326082 -13.80477917 -19.97042192 -13.98637705 0 0 Z M-55.046875 18.078125 C-61.38651959 25.8265795 -64.5011978 33.68919634 -65.25 43.625 C-65.32589355 44.48512695 -65.40178711 45.34525391 -65.47998047 46.23144531 C-66.10068898 53.82914271 -66.20777415 61.38161458 -66 69 C-65.39414063 68.87882812 -64.78828125 68.75765625 -64.1640625 68.6328125 C-62.90722656 68.38144531 -62.90722656 68.38144531 -61.625 68.125 C-60.7175 67.94324219 -59.81 67.76148438 -58.875 67.57421875 C-57.00040123 67.1998084 -55.12541734 66.82731962 -53.25 66.45703125 C-52.38375 66.28558594 -51.5175 66.11414063 -50.625 65.9375 C-49.83351562 65.78152344 -49.04203125 65.62554687 -48.2265625 65.46484375 C-46.06765585 65.04624955 -46.06765585 65.04624955 -44.26245117 64.48364258 C-38.87462364 63.33189052 -33.17944943 63.75853577 -27.6875 63.75 C-26.67329987 63.74649536 -26.67329987 63.74649536 -25.63861084 63.74291992 C-15.7853649 63.73000725 -6.49424995 64.20169475 3 67 C3.10651949 59.79612621 2.82369111 52.68070034 2.25 45.5 C2.188125 44.53191406 2.12625 43.56382813 2.0625 42.56640625 C1.41981752 34.58643215 -0.53242802 27.70135797 -5 21 C-5.66 21 -6.32 21 -7 21 C-7.26039063 20.40316406 -7.52078125 19.80632813 -7.7890625 19.19140625 C-10.42829137 14.41525337 -14.96007437 11.70988356 -20.01953125 9.94921875 C-33.07830925 6.55168218 -45.17769086 8.0582663 -55.046875 18.078125 Z M-65 88 C-65 91.8541113 -63.42542379 94.50462632 -61.75 97.875 C-53.85475843 114.29773869 -51.72547072 130.21309791 -51.375 148.1875 C-51.33672897 149.82358641 -51.29767229 151.45965465 -51.2578125 153.09570312 C-51.162825 157.06365081 -51.07844144 161.03169216 -51 165 C-44.02114131 166.46324256 -37.43938718 167.28084446 -30.3125 167.125 C-29.50361328 167.11597656 -28.69472656 167.10695313 -27.86132812 167.09765625 C-25.90741774 167.07453305 -23.9536642 167.03868642 -22 167 C-21.8453125 168.670625 -21.8453125 168.670625 -21.6875 170.375 C-21.070803 175.43554302 -19.57493852 180.16622643 -18 185 C-22.45852254 184.8596274 -26.91676488 184.71170167 -31.375 184.5625 C-32.62667969 184.52318359 -33.87835938 184.48386719 -35.16796875 184.44335938 C-42.1490422 184.20578358 -49.06229936 183.82495273 -56 183 C-56.25652344 183.66902344 -56.51304687 184.33804688 -56.77734375 185.02734375 C-61.92776878 197.94676008 -67.85128331 210.35144174 -77.15234375 220.80078125 C-78.8478544 222.81890493 -79.84701595 224.65783957 -81 227 C-81.66 227.33 -82.32 227.66 -83 228 C-82.18595703 228.88751953 -82.18595703 228.88751953 -81.35546875 229.79296875 C-80.28232422 230.97826172 -80.28232422 230.97826172 -79.1875 232.1875 C-78.47980469 232.96480469 -77.77210938 233.74210938 -77.04296875 234.54296875 C-75 237 -75 237 -73.36328125 239.80078125 C-72.68845703 240.88939453 -72.68845703 240.88939453 -72 242 C-71.34 242 -70.68 242 -70 242 C-69.7525 242.845625 -69.505 243.69125 -69.25 244.5625 C-68.15433401 247.57558146 -66.82253065 250.09047969 -65.203125 252.83984375 C-55.80867773 269.7071468 -51.60034197 286.93002332 -51.6875 306.125 C-51.69241455 307.40600586 -51.6973291 308.68701172 -51.70239258 310.00683594 C-51.82179829 319.68910839 -52.60939984 328.6083565 -55 338 C-55.18755859 338.73702148 -55.37511719 339.47404297 -55.56835938 340.23339844 C-56.16752138 342.53794227 -56.79342046 344.83262289 -57.4375 347.125 C-57.72693481 348.15608887 -57.72693481 348.15608887 -58.0222168 349.20800781 C-59.06794449 352.67813558 -60.30399546 355.68411423 -62.16015625 358.8046875 C-64.24949428 361.81877992 -64.24949428 361.81877992 -64 365 C-62.37884308 365.63490176 -60.75277293 366.25725792 -59.125 366.875 C-58.22007812 367.22304688 -57.31515625 367.57109375 -56.3828125 367.9296875 C-47.34143799 370.79035334 -38.62432753 371.34525187 -29.17797852 371.31567383 C-27.06929923 371.3125102 -24.962023 371.33606626 -22.85351562 371.36132812 C-14.21910424 371.40073615 -5.85505791 370.92752895 2 367 C1.57045619 365.6016978 1.13092966 364.20646093 0.6875 362.8125 C0.44386719 362.03519531 0.20023437 361.25789063 -0.05078125 360.45703125 C-0.92109535 357.96180901 -0.92109535 357.96180901 -2.4140625 355.7890625 C-13.4272244 336.42108813 -13.71772957 310.50267638 -11 289 C-14.71888866 288.1367399 -18.14296488 287.88278444 -21.95703125 287.90234375 C-23.06884766 287.90556641 -24.18066406 287.90878906 -25.32617188 287.91210938 C-27.0519043 287.92467773 -27.0519043 287.92467773 -28.8125 287.9375 C-30.56723633 287.94426758 -30.56723633 287.94426758 -32.35742188 287.95117188 C-35.23833358 287.9629307 -38.11914044 287.97936574 -41 288 C-41.04898438 287.28714844 -41.09796875 286.57429687 -41.1484375 285.83984375 C-41.58128523 280.29491509 -42.24028816 275.27913551 -44 270 C-40.08334973 269.97046609 -36.16672887 269.95302497 -32.25 269.9375 C-31.15816406 269.92912109 -30.06632812 269.92074219 -28.94140625 269.91210938 C-21.5752663 269.89031606 -14.32921225 270.2649241 -7 271 C-4.99203622 266.99748867 -2.99131881 262.9929357 -1.03515625 258.96484375 C-0.37760417 257.62239583 0.27994792 256.27994792 0.9375 254.9375 C1.25912109 254.26912109 1.58074219 253.60074219 1.91210938 252.91210938 C3.62766917 249.43023358 5.45318111 246.26110162 7.75390625 243.12890625 C10.1943851 240.37115009 10.1943851 240.37115009 10 238 C10.66 238 11.32 238 12 238 C13.59196168 236.35759707 13.59196168 236.35759707 15.125 234.25 C15.66382813 233.55390625 16.20265625 232.8578125 16.7578125 232.140625 C18.33460469 229.83587485 18.33460469 229.83587485 18 226 C16.32896235 223.11374602 16.32896235 223.11374602 14.125 220.25 C13.40570313 219.26515625 12.68640625 218.2803125 11.9453125 217.265625 C10.98238281 216.14414062 10.98238281 216.14414062 10 215 C9.34 215 8.68 215 8 215 C7.59007812 213.89785156 7.59007812 213.89785156 7.171875 212.7734375 C6.06559295 210.15523664 4.79940122 207.99908252 3.25 205.625 C-12.3318515 180.00995631 -15.3714486 148.83300705 -9 120 C-8.77183594 118.89914063 -8.54367187 117.79828125 -8.30859375 116.6640625 C-6.72723093 109.63377521 -4.13990516 103.46289517 -1 97 C-0.05727759 94.93988181 0.88037477 92.87743464 1.8125 90.8125 C2.54166667 89.20833333 3.27083333 87.60416667 4 86 C2.10454608 85.51933465 0.20861961 85.04053257 -1.6875 84.5625 C-2.74324219 84.29566406 -3.79898438 84.02882813 -4.88671875 83.75390625 C-12.34818258 81.9470524 -19.32994836 81.78083438 -27 81.75 C-28.25167969 81.729375 -29.50335938 81.70875 -30.79296875 81.6875 C-42.83498827 81.63758489 -53.59698497 84.37059792 -65 88 Z M21 94 C7.01775651 111.51991955 4.4119115 137.02846682 6.30859375 158.4921875 C8.38854092 173.54879622 12.9021953 188.78504803 21.765625 201.2578125 C23 203 23 203 24 205 C24.66 205 25.32 205 26 205 C26.20625 205.721875 26.4125 206.44375 26.625 207.1875 C27.96718562 209.93287969 28.780567 210.8370474 31.0859375 212.67578125 C32.04757812 213.44277344 33.00921875 214.20976562 34 215 C34.80179687 214.443125 35.60359375 213.88625 36.4296875 213.3125 C53.1530682 201.96574379 70.34407252 196.34462568 90 192 C87.85249793 171.53019308 78.88263917 153.17532169 68 136 C64.28631113 137.23789629 63.22645819 138.85224877 61 142 C61 142.66 61 143.32 61 144 C60.34 144 59.68 144 59 144 C57.39940707 145.62092592 57.39940707 145.62092592 55.75 147.6875 C53.49924272 150.35349133 51.29950455 152.71010091 48.5625 154.875 C47.716875 155.57625 46.87125 156.2775 46 157 C46 157.66 46 158.32 46 159 C45.34 159 44.68 159 44 159 C44 159.66 44 160.32 44 161 C43.2884375 161.25910156 42.576875 161.51820313 41.84375 161.78515625 C38.82149266 163.07625794 36.25003711 164.64147857 33.5 166.4375 C23.01330947 173.25679454 23.01330947 173.25679454 19 174 C18.49645133 171.56318413 17.99703244 169.12564561 17.5 166.6875 C17.35691406 165.99720703 17.21382813 165.30691406 17.06640625 164.59570312 C16.47374956 161.67475227 16 158.98891878 16 156 C20.95 153.525 20.95 153.525 26 151 C26 150.34 26 149.68 26 149 C26.99 149 27.98 149 29 149 C29 148.34 29 147.68 29 147 C29.55171875 146.7628125 30.1034375 146.525625 30.671875 146.28125 C33.56774711 144.68754857 35.79512037 142.71082727 38.25 140.5 C39.14203125 139.7059375 40.0340625 138.911875 40.953125 138.09375 C43.233019 136.24965329 43.233019 136.24965329 43 134 C43.66 134 44.32 134 45 134 C46.79083852 131.69833213 48.47259242 129.39761099 50.125 127 C50.59292969 126.33226562 51.06085938 125.66453125 51.54296875 124.9765625 C52.70126236 123.32185734 53.85139765 121.66144693 55 120 C54.34 119.67 53.68 119.34 53 119 C53 118.34 53 117.68 53 117 C52.34 117 51.68 117 51 117 C51 116.34 51 115.68 51 115 C50.34 115 49.68 115 49 115 C49 114.34 49 113.68 49 113 C48.34 113 47.68 113 47 113 C47 112.34 47 111.68 47 111 C45.50428429 109.55390095 45.50428429 109.55390095 43.52734375 108.1015625 C42.79193359 107.53953125 42.05652344 106.9775 41.29882812 106.3984375 C40.51958984 105.81320313 39.74035156 105.22796875 38.9375 104.625 C38.18533203 104.0475 37.43316406 103.47 36.65820312 102.875 C29.4737921 96.83750277 29.4737921 96.83750277 21 94 Z M-104.41479492 114.13574219 C-106.63752326 116.39920743 -108.83189835 118.68407323 -111 121 C-109.60838098 125.16741523 -107.66792321 127.79416663 -104.6875 131 C-103.88441406 131.86496094 -103.08132812 132.72992188 -102.25390625 133.62109375 C-101.51011719 134.40613281 -100.76632813 135.19117188 -100 136 C-99.47277344 136.56847656 -98.94554687 137.13695312 -98.40234375 137.72265625 C-96.26102259 139.96875153 -95.00800903 140.99733032 -92 142 C-91.67 142.99 -91.34 143.98 -91 145 C-88.49552484 146.21869929 -88.49552484 146.21869929 -86 147 C-86 147.66 -86 148.32 -86 149 C-83.94178952 150.45442908 -81.90716344 151.77143537 -79.75 153.0625 C-78.87021484 153.60874023 -78.87021484 153.60874023 -77.97265625 154.16601562 C-75.00276494 155.97130911 -72.38622569 157.26748268 -69 158 C-68.51416157 139.28922798 -68.51416157 139.28922798 -72 121 C-72.29003906 119.98035156 -72.58007812 118.96070313 -72.87890625 117.91015625 C-75.14655783 110.53791659 -78.38341527 103.7991793 -82 97 C-88.40092104 97 -99.98033741 109.74692121 -104.41479492 114.13574219 Z M84 127 C84.38857178 127.7000415 84.77714355 128.40008301 85.17749023 129.12133789 C95.01521689 146.904854 102.31417268 164.25000736 107.40917969 183.92041016 C108.18211532 186.64101582 109.10562174 189.31686523 110 192 C129.8 192 149.6 192 170 192 C167.89203823 179.35222936 164.97459002 167.35995126 157 157 C156.34 157 155.68 157 155 157 C154.65001953 155.90945312 154.65001953 155.90945312 154.29296875 154.796875 C149.00961487 143.36823036 132.47712454 134.87121954 121.125 130.5625 C119.43491492 129.98519371 117.72275232 129.47095071 116 129 C115.37391846 128.82339844 114.74783691 128.64679688 114.1027832 128.46484375 C107.68733 126.82433619 101.53052602 126.76684942 94.9375 126.875 C93.88111328 126.88402344 92.82472656 126.89304688 91.73632812 126.90234375 C89.15730747 126.9256833 86.5787801 126.95842225 84 127 Z M-124 138 C-140.22318716 165.33294344 -149.25027284 194.80542584 -149.125 226.75 C-149.12886719 227.75160156 -149.13273437 228.75320313 -149.13671875 229.78515625 C-149.13029605 234.63429124 -149.02118736 239.234459 -148 244 C-134.34874423 240.6350612 -122.69663522 235.71480195 -111 228 C-114.72451898 224.80956299 -118.48695007 222.55462217 -122.875 220.375 C-124.04804688 219.78460938 -125.22109375 219.19421875 -126.4296875 218.5859375 C-129.96287493 217.016491 -133.26905243 215.96374861 -137 215 C-136.71880143 212.37348569 -136.42556162 209.74930665 -136.125 207.125 C-136.04636719 206.37863281 -135.96773437 205.63226563 -135.88671875 204.86328125 C-135.2265625 199.2265625 -135.2265625 199.2265625 -133 197 C-127.03325469 198.77272868 -121.64725305 201.06124002 -116.1640625 204.01171875 C-113.94169086 205.20770525 -113.94169086 205.20770525 -111 205 C-111 205.66 -111 206.32 -111 207 C-110.22076172 207.36351562 -110.22076172 207.36351562 -109.42578125 207.734375 C-105.18728392 209.77136078 -101.56767054 211.87828828 -98 215 C-86.64391364 210.27667205 -79.3817999 192.4751946 -74.59375 181.8671875 C-73.79797395 179.6912343 -73.79797395 179.6912343 -74 176 C-75.01578125 175.52691406 -76.0315625 175.05382812 -77.078125 174.56640625 C-85.33009805 170.63248978 -92.62012167 166.43172748 -99.7421875 160.6875 C-101.79720658 158.80044373 -101.79720658 158.80044373 -104 159 C-104 158.34 -104 157.68 -104 157 C-105.68805632 155.33122279 -105.68805632 155.33122279 -107.8125 153.625 C-110.06250857 151.76433718 -111.90350285 150.13127297 -113.63671875 147.7734375 C-114.08660156 147.18820313 -114.53648437 146.60296875 -115 146 C-115.66 146 -116.32 146 -117 146 C-117 145.34 -117 144.68 -117 144 C-117.66 144 -118.32 144 -119 144 C-119.268125 143.195625 -119.53625 142.39125 -119.8125 141.5625 C-120.204375 140.716875 -120.59625 139.87125 -121 139 C-121.99 138.67 -122.98 138.34 -124 138 Z M84.875 211.5625 C84.16504883 211.74449951 83.45509766 211.92649902 82.72363281 212.11401367 C70.21424931 215.43983368 58.92554834 220.00599368 48 227 C51.25115238 230.69561372 54.94901772 232.80395098 59.3125 234.9375 C60.01455566 235.28304932 60.71661133 235.62859863 61.43994141 235.98461914 C71.45379335 240.78978853 81.77014471 244.70934492 93 245 C94.17942085 241.46173745 94.11289189 238.65851274 94.09765625 234.92578125 C94.0962413 234.2419487 94.09482635 233.55811615 94.09336853 232.8535614 C94.08777876 230.67316278 94.07522822 228.49286749 94.0625 226.3125 C94.05748367 224.83268378 94.052921 223.35286594 94.04882812 221.87304688 C94.03781271 218.24866443 94.02055512 214.6243423 94 211 C90.89534942 209.44767471 88.0928134 210.73379558 84.875 211.5625 Z M33 240 C32.67 240.99 32.34 241.98 32 243 C31.34 243 30.68 243 30 243 C28.33275324 245.00557289 26.81294714 246.99871435 25.3125 249.125 C24.86841797 249.75011475 24.42433594 250.37522949 23.96679688 251.01928711 C18.57433361 258.80159205 14.41956718 267.1715982 11 276 C11.88300781 276.36351562 12.76601563 276.72703125 13.67578125 277.1015625 C24.76336615 281.74620064 34.78308864 286.58267094 44.00390625 294.4609375 C45.84388798 296.20353637 45.84388798 296.20353637 48 296 C48 296.66 48 297.32 48 298 C48.66 298 49.32 298 50 298 C50 298.66 50 299.32 50 300 C51.78612311 301.80693756 51.78612311 301.80693756 54 303.625 C55.11375 304.57246094 55.11375 304.57246094 56.25 305.5390625 C56.8275 306.02117187 57.405 306.50328125 58 307 C57.45989716 310.87523787 56.46487748 313.10315501 54 316.125 C52.04093379 318.54557699 50.99993639 320.00019084 50 323 C46.7018067 321.20955221 44.16139854 319.27012248 41.55859375 316.578125 C31.62921266 306.52431557 21.01126527 299.46120805 8 294 C6.25535275 297.02385355 5.75169933 299.18934552 5.76953125 302.66796875 C5.77146484 303.56193359 5.77339844 304.45589844 5.77539062 305.37695312 C5.78763672 306.30443359 5.79988281 307.23191406 5.8125 308.1875 C5.81314453 309.09564453 5.81378906 310.00378906 5.81445312 310.93945312 C5.9318963 329.16924437 11.48489304 344.11076816 20 360 C25.24534636 357.48338027 30.08937144 354.83086206 34.8125 351.4375 C35.40925537 351.01057861 36.00601074 350.58365723 36.62084961 350.14379883 C42.70717269 345.66968231 47.82106091 340.4820965 53 335 C53.85078125 334.15566406 54.7015625 333.31132812 55.578125 332.44140625 C72.98897289 314.8901483 86.66368587 287.39990933 90 263 C89.29617188 262.90203125 88.59234375 262.8040625 87.8671875 262.703125 C69.09368277 259.86013995 53.37749093 253.30611839 37.73046875 242.8203125 C35.17910745 241.03787258 35.17910745 241.03787258 33 240 Z M-99 241 C-99 241.66 -99 242.32 -99 243 C-99.72574219 243.27070313 -100.45148438 243.54140625 -101.19921875 243.8203125 C-103.93265532 244.97163446 -106.29883049 246.3075098 -108.8125 247.875 C-116.90609144 252.918641 -124.84627767 256.08064167 -134 258.75 C-135.06089844 259.06582031 -136.12179688 259.38164062 -137.21484375 259.70703125 C-139.80801677 260.47797458 -142.40298744 261.24211198 -145 262 C-141.73742563 281.32686914 -133.33765109 297.93804912 -124 315 C-123.01 315 -122.02 315 -121 315 C-120.34 313.68 -119.68 312.36 -119 311 C-118.34 311 -117.68 311 -117 311 C-115.39940707 309.37907408 -115.39940707 309.37907408 -113.75 307.3125 C-111.49924272 304.64650867 -109.29950455 302.28989909 -106.5625 300.125 C-105.716875 299.42375 -104.87125 298.7225 -104 298 C-104 297.34 -104 296.68 -104 296 C-103.44183594 295.74089844 -102.88367188 295.48179687 -102.30859375 295.21484375 C-99.72260633 293.85402804 -97.43755454 292.26419547 -95.0625 290.5625 C-85.89200864 284 -85.89200864 284 -82 284 C-80.28048715 289.98044406 -78.68804496 295.80759538 -78 302 C-78.68449219 302.226875 -79.36898437 302.45375 -80.07421875 302.6875 C-83.74518186 304.33428719 -86.65392227 306.53511214 -89.8125 309 C-90.40998047 309.45117188 -91.00746094 309.90234375 -91.62304688 310.3671875 C-93.12347581 311.52637603 -94.56724504 312.75813919 -96 314 C-96 314.66 -96 315.32 -96 316 C-96.99 316.33 -97.98 316.66 -99 317 C-99 317.66 -99 318.32 -99 319 C-99.66 319 -100.32 319 -101 319 C-102.62356346 320.96937661 -104.13559566 322.93345148 -105.625 325 C-106.04523438 325.57234375 -106.46546875 326.1446875 -106.8984375 326.734375 C-107.93805801 328.15203933 -108.96977591 329.57549262 -110 331 C-105.51314423 341.71859989 -92.53343883 350.0205234 -83 356 C-82.34 356 -81.68 356 -81 356 C-77.23177052 349.80383602 -74.71243764 343.78126378 -72.75 336.8125 C-72.49476563 335.94947266 -72.23953125 335.08644531 -71.9765625 334.19726562 C-65.05991762 310.40764758 -68.31402021 283.80014486 -80.07421875 262.04296875 C-84.58348724 254.1054208 -89.76504403 246.69422728 -96 240 C-97.2236068 239.9254644 -97.2236068 239.9254644 -99 241 Z M-165 271 C-165 271.66 -165 272.32 -165 273 C-165.66 273 -166.32 273 -167 273 C-168.81067374 274.71331989 -168.81067374 274.71331989 -170.625 276.875 C-171.25664062 277.59429687 -171.88828125 278.31359375 -172.5390625 279.0546875 C-174.20017123 280.86106933 -174.20017123 280.86106933 -174 283 C-174.66 283 -175.32 283 -176 283 C-187.5989325 298.68923615 -192.01129076 319.69533434 -189.5 338.8046875 C-188.01259646 347.06991851 -185.48505393 354.38578977 -182 362 C-181.32425964 363.66300848 -180.65468559 365.32859071 -180 367 C-179.34 367 -178.68 367 -178 367 C-177.896875 367.598125 -177.79375 368.19625 -177.6875 368.8125 C-176.91123545 371.28243264 -175.92911079 372.32251235 -174 374 C-173.29488281 373.29230469 -172.58976562 372.58460938 -171.86328125 371.85546875 C-169.9573471 369.94819003 -168.03725657 368.05685232 -166.10546875 366.17578125 C-165.13278804 365.2213791 -164.16013192 364.26695188 -163.1875 363.3125 C-162.68541016 362.82716797 -162.18332031 362.34183594 -161.66601562 361.84179688 C-160.40582727 360.59875394 -159.19808956 359.30300108 -158 358 C-158 357.34 -158 356.68 -158 356 C-157.34 356 -156.68 356 -156 356 C-156 355.34 -156 354.68 -156 354 C-155.34 354 -154.68 354 -154 354 C-154 353.34 -154 352.68 -154 352 C-153.34 352 -152.68 352 -152 352 C-150.53358246 350.54995757 -150.53358246 350.54995757 -149 348.625 C-145.27153008 344.17769372 -141.13202706 340.29812463 -136.84375 336.39453125 C-134.75456544 334.18282733 -134.75456544 334.18282733 -134.9921875 331.5703125 C-136.21412597 328.45389577 -137.79335762 325.86653939 -139.625 323.0625 C-150.11355234 306.55212896 -156.81335572 288.74994856 -162 270 C-163.2236068 269.9254644 -163.2236068 269.9254644 -165 271 Z M-51 388 C-48.83345437 393.64100589 -45.98612756 398.75505912 -43 404 C-42.58476074 404.74233887 -42.16952148 405.48467773 -41.74169922 406.24951172 C-40.34983621 408.72134538 -38.92813404 411.1739707 -37.5 413.625 C-37.04955322 414.43155029 -36.59910645 415.23810059 -36.13500977 416.0690918 C-33.44151579 420.69294372 -33.44151579 420.69294372 -28.84375 423.1953125 C-26.07350318 423.22776541 -26.07350318 423.22776541 -24.3125 421.953125 C-20.9336716 417.56869291 -18.21723684 413.02636674 -15.65234375 408.12109375 C-13.42271978 403.9095818 -11.0288588 399.79872198 -8.62744141 395.68334961 C-7.15508989 393.13521637 -5.9340728 390.80221841 -5 388 C-5.95132813 388.10828125 -5.95132813 388.10828125 -6.921875 388.21875 C-21.5703556 389.67550498 -36.35639513 389.35768522 -51 388 Z " fill="#57AD86" transform="translate(277,28)"/>
<path d="M0 0 C0.93972656 0.27714844 1.87945312 0.55429687 2.84765625 0.83984375 C18.01779775 4.91562739 33.3970078 4.82739394 49 5 C48.67 5.66 48.34 6.32 48 7 C43.7641643 7.02469321 39.52836658 7.04285671 35.29248047 7.05493164 C33.8510668 7.05996474 32.40965824 7.06679173 30.96826172 7.07543945 C28.89809915 7.08754983 26.82800399 7.09323847 24.7578125 7.09765625 C23.5114502 7.10289307 22.26508789 7.10812988 20.98095703 7.11352539 C18 7 18 7 16 6 C13.69116277 5.96984727 11.40065744 6.06653176 9.09375 6.16015625 C7 6 7 6 5 4 C3.35008418 3.29289322 1.68437744 2.62056011 0 2 C0 1.34 0 0.68 0 0 Z " fill="#7BB69C" transform="translate(216,394)"/>
<path d="M0 0 C0.33 0 0.66 0 1 0 C1.02688151 1.64574566 1.04634123 3.29161413 1.0625 4.9375 C1.07410156 5.85402344 1.08570313 6.77054688 1.09765625 7.71484375 C1 10 1 10 0 11 C-2.26991887 11.09439978 -4.54281967 11.11742226 -6.81469727 11.11352539 C-7.88293228 11.11374443 -7.88293228 11.11374443 -8.9727478 11.1139679 C-11.33733112 11.1132687 -13.70183661 11.10547606 -16.06640625 11.09765625 C-17.70165463 11.09579209 -19.33690357 11.09436818 -20.97215271 11.09336853 C-25.28434785 11.08954318 -29.59650952 11.07971275 -33.90869141 11.06866455 C-38.30565946 11.0584508 -42.70263289 11.05387099 -47.09960938 11.04882812 C-55.73308831 11.03809049 -64.36654 11.02101387 -73 11 C-73 10.67 -73 10.34 -73 10 C-71.73212898 9.9845388 -71.73212898 9.9845388 -70.43864441 9.96876526 C-62.47807582 9.87084077 -54.51758234 9.76833347 -46.5571394 9.66066074 C-42.46447117 9.60546557 -38.37179576 9.552051 -34.27905273 9.50268555 C-30.33030782 9.45499177 -26.38164959 9.40264712 -22.43300819 9.34705925 C-20.92553169 9.32665842 -19.41803144 9.30794159 -17.91051292 9.29092598 C-15.80117577 9.26683162 -13.692002 9.23678409 -11.58276367 9.20532227 C-10.38141281 9.18977798 -9.18006195 9.1742337 -7.94230652 9.15821838 C-4.93960572 9.12699693 -4.93960572 9.12699693 -2 8 C-1.19787372 6.12612784 -1.19787372 6.12612784 -0.8125 3.9375 C-0.65394531 3.20402344 -0.49539063 2.47054687 -0.33203125 1.71484375 C-0.22246094 1.14894531 -0.11289062 0.58304688 0 0 Z " fill="#92C6B0" transform="translate(466,227)"/>
<path d="M0 0 C0.78036621 0.00193359 1.56073242 0.00386719 2.36474609 0.00585938 C9.06909553 0.05526707 15.70141776 0.46471624 22.375 1.125 C22.375 1.785 22.375 2.445 22.375 3.125 C10.67365851 3.28456375 -0.94423512 2.78908409 -12.625 2.125 C-12.52960938 2.81207031 -12.43421875 3.49914062 -12.3359375 4.20703125 C-12.22507813 5.10808594 -12.11421875 6.00914062 -12 6.9375 C-11.88398438 7.83082031 -11.76796875 8.72414063 -11.6484375 9.64453125 C-11.625 12.125 -11.625 12.125 -13.625 15.125 C-15.92112756 5.71497722 -15.92112756 5.71497722 -15.625 1.125 C-10.37001859 0.25148066 -5.32259956 -0.03209838 0 0 Z " fill="#81BAA2" transform="translate(248.625,296.875)"/>
<path d="M0 0 C0.99 0.33 1.98 0.66 3 1 C2.63840082 4.25439263 1.9175455 5.07642124 -0.5625 7.375 C-3.32125907 9.81196814 -3.32125907 9.81196814 -3.3125 13.3125 C-3.209375 14.199375 -3.10625 15.08625 -3 16 C-4.32 16 -5.64 16 -7 16 C-7 17.32 -7 18.64 -7 20 C-7.66 20 -8.32 20 -9 20 C-9.33 21.65 -9.66 23.3 -10 25 C-10.99 24.67 -11.98 24.34 -13 24 C-4.738041 7.1070615 -4.738041 7.1070615 0 0 Z " fill="#72B497" transform="translate(138,155)"/>
<path d="M0 0 C0.66 0.99 1.32 1.98 2 3 C0.35 4.65 -1.3 6.3 -3 8 C-2.67 8.66 -2.34 9.32 -2 10 C-3.61992165 10.86375896 -5.24611861 11.71575854 -6.875 12.5625 C-8.23238281 13.27599609 -8.23238281 13.27599609 -9.6171875 14.00390625 C-10.40351563 14.33261719 -11.18984375 14.66132813 -12 15 C-12.66 14.67 -13.32 14.34 -14 14 C-14 13.34 -14 12.68 -14 12 C-13.34 12 -12.68 12 -12 12 C-12 11.34 -12 10.68 -12 10 C-10.23947136 8.41929472 -8.41580202 6.90833714 -6.5625 5.4375 C-5.55316406 4.63183594 -4.54382813 3.82617188 -3.50390625 2.99609375 C-2.67761719 2.33738281 -1.85132813 1.67867187 -1 1 C-0.67 0.67 -0.34 0.34 0 0 Z " fill="#57A885" transform="translate(318,165)"/>
<path d="M0 0 C1.28583984 0.00451172 2.57167969 0.00902344 3.89648438 0.01367188 C7.03520653 0.02533999 10.17382728 0.04170985 13.3125 0.0625 C13.3125 0.7225 13.3125 1.3825 13.3125 2.0625 C5.09391469 3.29119216 -2.98004559 2.9679935 -11.25 2.625 C-12.65427388 2.57165672 -14.05857084 2.51891764 -15.46289062 2.46679688 C-18.87136758 2.3379541 -22.27948813 2.20302672 -25.6875 2.0625 C-25.6875 1.7325 -25.6875 1.4025 -25.6875 1.0625 C-17.10824698 0.07944905 -8.62886443 -0.05815202 0 0 Z " fill="#8BC9A1" transform="translate(139.6875,135.9375)"/>
<path d="M0 0 C3.3 0.99 6.6 1.98 10 3 C10 3.33 10 3.66 10 4 C6.67485327 5.13357275 3.4120992 6.1469752 0 7 C-0.33 9.97 -0.66 12.94 -1 16 C-1.66 16 -2.32 16 -3 16 C-2.88590318 13.89521396 -2.75834639 11.79115423 -2.625 9.6875 C-2.55539063 8.51574219 -2.48578125 7.34398437 -2.4140625 6.13671875 C-2 3 -2 3 0 0 Z " fill="#7BB89E" transform="translate(143,224)"/>
<path d="M0 0 C1.1875 1.6875 1.1875 1.6875 2 4 C1.04504326 5.69287785 0.0409066 7.35857037 -1 9 C-1.25196129 11.70953551 -1.25196129 11.70953551 -1 14 C-1.99 14.495 -1.99 14.495 -3 15 C-3.72159424 16.64363134 -4.39351421 18.31050386 -5 20 C-5.66 20 -6.32 20 -7 20 C-7.2475 20.61875 -7.495 21.2375 -7.75 21.875 C-9.22047178 24.37480203 -10.41403076 24.83316022 -13 26 C-12.46890625 25.0821875 -11.9378125 24.164375 -11.390625 23.21875 C-4.51413035 12.10678265 -4.51413035 12.10678265 0 0 Z " fill="#83BCA2" transform="translate(201,209)"/>
<path d="M0 0 C2.27246338 2.0913455 3.69102273 4.02258757 5.04296875 6.79296875 C5.39423828 7.50517578 5.74550781 8.21738281 6.10742188 8.95117188 C6.46384766 9.68916016 6.82027344 10.42714844 7.1875 11.1875 C7.55552734 11.93708984 7.92355469 12.68667969 8.30273438 13.45898438 C9.20728218 15.30332212 10.10437576 17.15131245 11 19 C9.68 19.33 8.36 19.66 7 20 C7 18.35 7 16.7 7 15 C6.34 15 5.68 15 5 15 C3.74335022 12.09399739 3 10.20395416 3 7 C1.68 6.34 0.36 5.68 -1 5 C-0.67 3.35 -0.34 1.7 0 0 Z " fill="#7CB89E" transform="translate(364,161)"/>
<path d="M0 0 C3.4877577 0.22746246 6.54887462 1.14400968 9.875 2.1875 C7.13406335 4.0147911 4.73674676 5.12448178 1.6875 6.3125 C0.78644531 6.66570312 -0.11460937 7.01890625 -1.04296875 7.3828125 C-2.07357422 7.78113281 -2.07357422 7.78113281 -3.125 8.1875 C-3.16741723 5.85455225 -3.16592937 3.52047433 -3.125 1.1875 C-2.125 0.1875 -2.125 0.1875 0 0 Z " fill="#69B696" transform="translate(337.125,241.8125)"/>
<path d="M0 0 C0.66 0 1.32 0 2 0 C2.33 1.98 2.66 3.96 3 6 C3.99 6.33 4.98 6.66 6 7 C6.33 10.63 6.66 14.26 7 18 C0 8.66666667 0 8.66666667 0 5 C-0.66 5 -1.32 5 -2 5 C-2.33 4.01 -2.66 3.02 -3 2 C-2.34 2 -1.68 2 -1 2 C-0.67 1.34 -0.34 0.68 0 0 Z " fill="#77B99D" transform="translate(434,180)"/>
<path d="M0 0 C2.31 0 4.62 0 7 0 C9.09352976 3.43367856 9.23437612 6.09363593 9.1953125 10.078125 C9.18564453 11.81835938 9.18564453 11.81835938 9.17578125 13.59375 C9.15902344 14.8003125 9.14226562 16.006875 9.125 17.25 C9.11597656 18.47203125 9.10695313 19.6940625 9.09765625 20.953125 C9.07409513 23.96894782 9.04119706 26.98437492 9 30 C8.67 30 8.34 30 8 30 C7.97494385 29.39526855 7.9498877 28.79053711 7.92407227 28.16748047 C7.80736994 25.4031438 7.68498266 22.63908634 7.5625 19.875 C7.52318359 18.92367187 7.48386719 17.97234375 7.44335938 16.9921875 C7.22946977 12.25371013 6.93438179 7.66405699 6 3 C4.02 2.34 2.04 1.68 0 1 C0 0.67 0 0.34 0 0 Z " fill="#59A483" transform="translate(364,236)"/>
<path d="M0 0 C0.33 0 0.66 0 1 0 C1 1.98 1 3.96 1 6 C1.68964844 5.73445313 2.37929687 5.46890625 3.08984375 5.1953125 C9.02501087 2.96453638 14.77890211 1.22382254 21 0 C20.67 0.99 20.34 1.98 20 3 C15.56971812 4.65049717 11.70949382 5.22973141 7 5 C7 5.66 7 6.32 7 7 C4.69 7 2.38 7 0 7 C0 4.69 0 2.38 0 0 Z " fill="#7BB79D" transform="translate(128,266)"/>
<path d="M0 0 C0.66 0.33 1.32 0.66 2 1 C0.75686537 4.72940389 -0.76985216 5.84656811 -4 8 C-4.99 7.67 -5.98 7.34 -7 7 C-7.66 8.65 -8.32 10.3 -9 12 C-9.66 12 -10.32 12 -11 12 C-11.66 13.65 -12.32 15.3 -13 17 C-13.66 17 -14.32 17 -15 17 C-12.41179263 9.0000863 -6.6298937 4.63928045 0 0 Z " fill="#7AB69E" transform="translate(218,25)"/>
<path d="M0 0 C0.33 0.66 0.66 1.32 1 2 C0.01 3.485 0.01 3.485 -1 5 C-1.12375 6.155 -1.2475 7.31 -1.375 8.5 C-2 12 -2 12 -3.875 14 C-6 15 -6 15 -9 14 C-6.34151874 8.99900452 -3.74123976 4.2954975 0 0 Z " fill="#7EB9A0" transform="translate(54,172)"/>
<path d="M0 0 C0.33 0 0.66 0 1 0 C1 8.58 1 17.16 1 26 C1.66 26 2.32 26 3 26 C3 26.66 3 27.32 3 28 C1.02 28.99 1.02 28.99 -1 30 C-1.66 29.34 -2.32 28.68 -3 28 C-2.34 28 -1.68 28 -1 28 C-0.67 18.76 -0.34 9.52 0 0 Z " fill="#9ECDB6" transform="translate(371,245)"/>
<path d="M0 0 C-0.33 0.99 -0.66 1.98 -1 3 C-1.66 2.34 -2.32 1.68 -3 1 C-3.66 1 -4.32 1 -5 1 C-5 1.66 -5 2.32 -5 3 C-7.97 4.65 -10.94 6.3 -14 8 C-14 7.01 -14 6.02 -14 5 C-13.34 5.33 -12.68 5.66 -12 6 C-12.33 5.01 -12.66 4.02 -13 3 C-4.738041 -1.77676538 -4.738041 -1.77676538 0 0 Z " fill="#79B49B" transform="translate(183,268)"/>
<path d="M0 0 C13.6332574 -0.18451025 13.6332574 -0.18451025 20 1 C18 3 18 3 15.71484375 3.16015625 C14.79832031 3.12792969 13.88179687 3.09570312 12.9375 3.0625 C7.8491767 2.96180759 3.04302445 3.33861974 -2 4 C-2 3.34 -2 2.68 -2 2 C-1.34 2 -0.68 2 0 2 C0 1.34 0 0.68 0 0 Z " fill="#6AB295" transform="translate(236,34)"/>
<path d="M0 0 C2.67158839 2.67158839 2.9263784 4.24529849 3 8 C0.84614331 10.61955544 -0.95946594 12.47973297 -4 14 C-3.52188823 12.22888156 -3.0424722 10.45811517 -2.5625 8.6875 C-2.29566406 7.70136719 -2.02882813 6.71523438 -1.75390625 5.69921875 C-1.21920575 3.78482474 -0.62855462 1.88566385 0 0 Z " fill="#78BCA0" transform="translate(75,320)"/>
<path d="M0 0 C0.33 1.32 0.66 2.64 1 4 C0.01 4.66 -0.98 5.32 -2 6 C-1.67 6.66 -1.34 7.32 -1 8 C-3.0625 9.1875 -3.0625 9.1875 -6 10 C-8.54812724 9.27873258 -10.62082896 8.21291073 -13 7 C-10 5 -10 5 -7.0625 5.1875 C-3.7785685 5.33562395 -3.7785685 5.33562395 -1.625 2.5 C-1.08875 1.675 -0.5525 0.85 0 0 Z " fill="#7EBBA0" transform="translate(255,445)"/>
<path d="M0 0 C1.32 0.66 2.64 1.32 4 2 C2.625 3.5 2.625 3.5 1 5 C0.34 5 -0.32 5 -1 5 C-1 5.66 -1 6.32 -1 7 C-2.375 8.625 -2.375 8.625 -4 10 C-4.66 10 -5.32 10 -6 10 C-6.33 10.66 -6.66 11.32 -7 12 C-7 11.34 -7 10.68 -7 10 C-7.66 9.67 -8.32 9.34 -9 9 C-8.01 8.67 -7.02 8.34 -6 8 C-6 7.34 -6 6.68 -6 6 C-4.68 6 -3.36 6 -2 6 C-1.855625 5.195625 -1.71125 4.39125 -1.5625 3.5625 C-1 1 -1 1 0 0 Z " fill="#7CBCA1" transform="translate(182,337)"/>
<path d="M0 0 C0 0.99 0 1.98 0 3 C-2.31 4.32 -4.62 5.64 -7 7 C-7 7.66 -7 8.32 -7 9 C-8.96466413 10.06775224 -10.96855359 11.06553465 -13 12 C-13.66 11.67 -14.32 11.34 -15 11 C-13.71034824 9.62437146 -12.37310707 8.29233607 -11 7 C-10.34 7 -9.68 7 -9 7 C-9 6.34 -9 5.68 -9 5 C-7.35 4.34 -5.7 3.68 -4 3 C-4 2.34 -4 1.68 -4 1 C-2 0 -2 0 0 0 Z " fill="#7FB9A0" transform="translate(179,114)"/>
<path d="M0 0 C0.99 0 1.98 0 3 0 C3.66 1.98 4.32 3.96 5 6 C9.24822374 5.52797514 11.19989709 3.03344482 14 0 C12.64978174 4.41889613 10.73884332 6.34345343 7 9 C4.08938949 7.93277615 3.17140971 7.36086255 1.8125 4.5 C1.544375 3.675 1.27625 2.85 1 2 C0.67 1.34 0.34 0.68 0 0 Z " fill="#7BB79C" transform="translate(96,395)"/>
<path d="M0 0 C2.31 0.33 4.62 0.66 7 1 C7 1.66 7 2.32 7 3 C6.34 3 5.68 3 5 3 C5.33 5.31 5.66 7.62 6 10 C2.51668565 6.98112756 1.20842856 4.43090471 0 0 Z " fill="#6EB697" transform="translate(224,450)"/>
<path d="M0 0 C2.35170044 2.13790949 3.88791835 4.00593401 5 7 C5.125 10.25 5.125 10.25 5 13 C5.99 13.33 6.98 13.66 8 14 C7.34 15.32 6.68 16.64 6 18 C5.17934931 16.12855305 4.3688416 14.25265664 3.5625 12.375 C2.88380859 10.80878906 2.88380859 10.80878906 2.19140625 9.2109375 C1.04198295 6.11314749 0.42688777 3.26789946 0 0 Z " fill="#87C0A9" transform="translate(72,380)"/>
<path d="M0 0 C4.18423892 3.50897269 8.19588166 7.08060535 12 11 C8.64708882 11.37254569 7.3961577 11.31050198 4.6875 9.1875 C3 7 3 7 3 4 C2.01 4 1.02 4 0 4 C0 2.68 0 1.36 0 0 Z " fill="#79B89E" transform="translate(171,365)"/>
<path d="M0 0 C3.60401481 -0.08701039 7.20776012 -0.14039388 10.8125 -0.1875 C12.34874023 -0.22520508 12.34874023 -0.22520508 13.91601562 -0.26367188 C15.39038086 -0.27817383 15.39038086 -0.27817383 16.89453125 -0.29296875 C18.25348511 -0.31653442 18.25348511 -0.31653442 19.63989258 -0.34057617 C22.42444206 0.06124927 23.27599535 0.83688562 25 3 C24.01 3 23.02 3 22 3 C21.67 3.66 21.34 4.32 21 5 C21 4.01 21 3.02 21 2 C14.07 1.67 7.14 1.34 0 1 C0 0.67 0 0.34 0 0 Z " fill="#8BC5A9" transform="translate(245,315)"/>
<path d="M0 0 C2.15502531 3.23253796 2.46856135 4.25150923 2 8 C0.6875 9.8125 0.6875 9.8125 -1 11 C-1.99 11 -2.98 11 -4 11 C-3.5247412 9.35303396 -3.04468109 7.70745272 -2.5625 6.0625 C-2.29566406 5.14597656 -2.02882813 4.22945313 -1.75390625 3.28515625 C-1 1 -1 1 0 0 Z " fill="#7BBA9E" transform="translate(275,287)"/>
<path d="M0 0 C6.28260706 -0.23268915 11.88019467 0.59545452 18 2 C18 2.33 18 2.66 18 3 C16.35 3 14.7 3 13 3 C12.67 3.66 12.34 4.32 12 5 C11.01 5 10.02 5 9 5 C8.67 4.01 8.34 3.02 8 2 C5.36 1.67 2.72 1.34 0 1 C0 0.67 0 0.34 0 0 Z " fill="#7BB79E" transform="translate(379,137)"/>
<path d="M0 0 C0.78375 0.04125 1.5675 0.0825 2.375 0.125 C-0.36243094 2.24028755 -3.1349271 4.13420413 -6.125 5.875 C-6.8778125 6.32359375 -7.630625 6.7721875 -8.40625 7.234375 C-10.97444895 8.26527176 -12.07507037 8.07542831 -14.625 7.125 C-11.95412223 3.66856994 -8.70469447 3.23764395 -4.625 2.125 C-2.625 0.125 -2.625 0.125 0 0 Z " fill="#7AB69D" transform="translate(312.625,398.875)"/>
<path d="M0 0 C0.66 0.33 1.32 0.66 2 1 C-0.89066059 10.59453303 -0.89066059 10.59453303 -4 14 C-4.93423645 10.98968256 -5.04449911 10.13349732 -4 7 C-3.01 7 -2.02 7 -1 7 C-1.20625 6.21625 -1.4125 5.4325 -1.625 4.625 C-1.74875 3.75875 -1.8725 2.8925 -2 2 C-1.34 1.34 -0.68 0.68 0 0 Z " fill="#7AB89D" transform="translate(144,177)"/>
<path d="M0 0 C0.33 0 0.66 0 1 0 C1.21442091 5.46773319 1.07190818 9.49644428 -2.5 13.8125 C-4 15 -4 15 -6 15 C-4.40109514 9.80355921 -2.25861997 4.93387858 0 0 Z " fill="#86BBA5" transform="translate(405,380)"/>
<path d="M0 0 C0.66 0.33 1.32 0.66 2 1 C2.1875 3.375 2.1875 3.375 2 6 C1.01 6.66 0.02 7.32 -1 8 C-3.6875 7.125 -3.6875 7.125 -6 6 C-5.34 4.68 -4.68 3.36 -4 2 C-3.34 2.33 -2.68 2.66 -2 3 C-0.84188612 1.94729537 -0.84188612 1.94729537 0 0 Z " fill="#52A881" transform="translate(173,327)"/>
<path d="M0 0 C1.62490954 -0.02698189 3.24994633 -0.04638757 4.875 -0.0625 C5.77992188 -0.07410156 6.68484375 -0.08570313 7.6171875 -0.09765625 C10 0 10 0 12 1 C13.53668865 1.22467831 15.07968054 1.40796805 16.625 1.5625 C17.44226563 1.64628906 18.25953125 1.73007812 19.1015625 1.81640625 C19.72804688 1.87699219 20.35453125 1.93757813 21 2 C16.60953544 4.92697637 13.04998256 3.81067467 8 3 C5.29575546 2.42268937 2.66637995 1.7406611 0 1 C0 0.67 0 0.34 0 0 Z " fill="#81BDA2" transform="translate(347,287)"/>
<path d="M0 0 C2 2 2 2 2 5 C4.31 5 6.62 5 9 5 C9 6.32 9 7.64 9 9 C4.27934033 7.45730076 -0.41664092 5.92205381 -5 4 C-4.0409375 3.8453125 -4.0409375 3.8453125 -3.0625 3.6875 C-2.381875 3.460625 -1.70125 3.23375 -1 3 C-0.67 2.01 -0.34 1.02 0 0 Z " fill="#83C0A6" transform="translate(149,241)"/>
<path d="M0 0 C0.99 0 1.98 0 3 0 C1.79618552 2.49361571 0.54571278 4.68143083 -1 7 C-1.66 7 -2.32 7 -3 7 C-3.28875 7.639375 -3.5775 8.27875 -3.875 8.9375 C-5 11 -5 11 -7 12 C-6.67 10.68 -6.34 9.36 -6 8 C-5.34 8 -4.68 8 -4 8 C-4.33 7.01 -4.66 6.02 -5 5 C-3.35 4.34 -1.7 3.68 0 3 C0 2.01 0 1.02 0 0 Z " fill="#84BFA5" transform="translate(339,165)"/>
<path d="M0 0 C-0.66 1.32 -1.32 2.64 -2 4 C-6.95 4 -11.9 4 -17 4 C-11.31594849 1.15797425 -6.37767332 -0.31110602 0 0 Z " fill="#82BAA1" transform="translate(114,138)"/>
<path d="M0 0 C1 2 1 2 0.375 4.375 C-1.25561397 7.4879903 -3.15997255 8.98208576 -6 11 C-6.66 10.01 -7.32 9.02 -8 8 C-7.236875 7.4225 -6.47375 6.845 -5.6875 6.25 C-3.33799083 4.28296907 -1.70676495 2.51523256 0 0 Z " fill="#79B99E" transform="translate(187,235)"/>
<path d="M0 0 C1.04449911 3.13349732 0.93423645 3.98968256 0 7 C-0.66 7 -1.32 7 -2 7 C-2 7.66 -2 8.32 -2 9 C-3.98 9.66 -5.96 10.32 -8 11 C-7.59007812 10.45730469 -7.18015625 9.91460937 -6.7578125 9.35546875 C-6.21898437 8.64003906 -5.68015625 7.92460937 -5.125 7.1875 C-4.59132813 6.47980469 -4.05765625 5.77210938 -3.5078125 5.04296875 C-2.29185219 3.39543703 -1.13583859 1.70375789 0 0 Z " fill="#78B89C" transform="translate(341,349)"/>
<path d="M0 0 C2.94995547 3.45856848 5.22675738 6.80021485 7 11 C6.67 11.66 6.34 12.32 6 13 C5.67 12.01 5.34 11.02 5 10 C4.01 9.67 3.02 9.34 2 9 C-0.29013653 5.5647952 -0.17842973 4.014669 0 0 Z " fill="#7BB79D" transform="translate(207,272)"/>
<path d="M0 0 C0 0.66 0 1.32 0 2 C-0.99 2.495 -0.99 2.495 -2 3 C-2 3.99 -2 4.98 -2 6 C-7.2734375 9.22265625 -7.2734375 9.22265625 -9 10 C-9.66 9.67 -10.32 9.34 -11 9 C-10.01 8.67 -9.02 8.34 -8 8 C-7.31513275 6.67592331 -6.65129797 5.34090759 -6 4 C-2.44444444 0 -2.44444444 0 0 0 Z " fill="#8CC2A8" transform="translate(164,126)"/>
<path d="M0 0 C0.33 0.66 0.66 1.32 1 2 C0.0625 4.625 0.0625 4.625 -1 7 C-0.34 7 0.32 7 1 7 C0.34 8.32 -0.32 9.64 -1 11 C-2.5625 9.8125 -2.5625 9.8125 -4 8 C-3.84946418 4.98928361 -3.41319987 3.47931185 -1.4375 1.1875 C-0.963125 0.795625 -0.48875 0.40375 0 0 Z " fill="#83C2A9" transform="translate(356,378)"/>
<path d="M0 0 C1.11375 0.598125 2.2275 1.19625 3.375 1.8125 C4.00148438 2.14894531 4.62796875 2.48539062 5.2734375 2.83203125 C7 4 7 4 9 7 C8.67 7.66 8.34 8.32 8 9 C6.68 8.67 5.36 8.34 4 8 C4 7.34 4 6.68 4 6 C3.34 5.67 2.68 5.34 2 5 C2 4.01 2 3.02 2 2 C1.34 2 0.68 2 0 2 C0 1.34 0 0.68 0 0 Z " fill="#7CBAA1" transform="translate(310,314)"/>
<path d="M0 0 C5.94 3.465 5.94 3.465 12 7 C11.34 7.66 10.68 8.32 10 9 C9.01 9 8.02 9 7 9 C7 8.01 7 7.02 7 6 C5.68 6 4.36 6 3 6 C3 5.34 3 4.68 3 4 C2.34 4 1.68 4 1 4 C0.67 2.68 0.34 1.36 0 0 Z " fill="#7AB89D" transform="translate(324,255)"/>
<path d="M0 0 C-1.98 0.99 -1.98 0.99 -4 2 C-4 2.66 -4 3.32 -4 4 C-7.96 4 -11.92 4 -16 4 C-13.41588269 2.27725513 -11.45097344 1.31104478 -8.5625 0.3125 C-7.41974609 -0.09548828 -7.41974609 -0.09548828 -6.25390625 -0.51171875 C-3.78170279 -1.04729142 -2.37016716 -0.80445309 0 0 Z " fill="#88BFA6" transform="translate(354,224)"/>
<path d="M0 0 C3 1 3 1 5 4 C5.81779841 6.64017635 6.3809489 9.30270591 7 12 C6.01 12.33 5.02 12.66 4 13 C2.68 8.71 1.36 4.42 0 0 Z " fill="#7DBAA0" transform="translate(441,198)"/>
<path d="M0 0 C0.99 0.33 1.98 0.66 3 1 C2.65120368 4.25543229 1.97866739 5.01873107 -0.5625 7.25 C-1.7690625 8.11625 -1.7690625 8.11625 -3 9 C-2.5020163 5.26512223 -2.12508244 3.18762365 0 0 Z " fill="#6FB294" transform="translate(138,155)"/>
<path d="M0 0 C1.65 1.32 3.3 2.64 5 4 C4.50168276 7.68754757 3.89932357 9.60490662 1 12 C1.33 9.36 1.66 6.72 2 4 C1.01 4 0.02 4 -1 4 C-0.67 2.68 -0.34 1.36 0 0 Z " fill="#76B69B" transform="translate(331,331)"/>
<path d="M0 0 C0.66 0 1.32 0 2 0 C2 0.66 2 1.32 2 2 C4.97 2.33 7.94 2.66 11 3 C7.79619983 5.13586678 6.98060033 5.23132175 3.3125 5.125 C2.10013672 5.09792969 2.10013672 5.09792969 0.86328125 5.0703125 C-0.05904297 5.03550781 -0.05904297 5.03550781 -1 5 C-0.67 3.35 -0.34 1.7 0 0 Z " fill="#6CAB90" transform="translate(237,311)"/>
<path d="M0 0 C0.66 0.33 1.32 0.66 2 1 C0.02 4.96 -1.96 8.92 -4 13 C-6 9 -6 9 -5.375 6.875 C-3.79646768 4.72245592 -2.45354848 3.98141939 0 3 C0 2.01 0 1.02 0 0 Z " fill="#84BCA4" transform="translate(212,227)"/>
<path d="M0 0 C4 4.625 4 4.625 4 8 C1.03 7.505 1.03 7.505 -2 7 C-1.67 5.68 -1.34 4.36 -1 3 C-1.99 2.34 -2.98 1.68 -4 1 C-2.68 0.67 -1.36 0.34 0 0 Z " fill="#7ABA9D" transform="translate(281,112)"/>
<path d="M0 0 C0.33 0.99 0.66 1.98 1 3 C0.00390625 4.82421875 0.00390625 4.82421875 -1.4375 6.6875 C-1.91058594 7.31011719 -2.38367188 7.93273437 -2.87109375 8.57421875 C-3.24363281 9.04472656 -3.61617188 9.51523437 -4 10 C-5.32 9.67 -6.64 9.34 -8 9 C-7.67 8.34 -7.34 7.68 -7 7 C-6.34 7 -5.68 7 -5 7 C-5 6.34 -5 5.68 -5 5 C-4.34 5 -3.68 5 -3 5 C-3 4.34 -3 3.68 -3 3 C-2.34 3 -1.68 3 -1 3 C-0.67 2.01 -0.34 1.02 0 0 Z " fill="#81B9A0" transform="translate(126,377)"/>
<path d="M0 0 C0.33 0.99 0.66 1.98 1 3 C0.34 3 -0.32 3 -1 3 C-1.103125 3.61875 -1.20625 4.2375 -1.3125 4.875 C-2.38197093 8.18063743 -5.18374035 9.12249357 -8 11 C-8 8 -8 8 -6.7578125 6.39453125 C-6.21898437 5.87246094 -5.68015625 5.35039062 -5.125 4.8125 C-4.59132813 4.28269531 -4.05765625 3.75289063 -3.5078125 3.20703125 C-2 2 -2 2 0 2 C0 1.34 0 0.68 0 0 Z " fill="#8FC8B4" transform="translate(332,360)"/>
<path d="M0 0 C1.12377697 3.30435084 0.89554742 5.0506862 -0.4375 8.25 C-0.72496094 8.95640625 -1.01242187 9.6628125 -1.30859375 10.390625 C-1.53675781 10.92171875 -1.76492188 11.4528125 -2 12 C-3.65 11.67 -5.3 11.34 -7 11 C-5.68 10.34 -4.36 9.68 -3 9 C-3.061875 8.2575 -3.12375 7.515 -3.1875 6.75 C-2.96905704 3.54616994 -2.09749995 2.35968744 0 0 Z " fill="#70B49A" transform="translate(376,320)"/>
<path d="M0 0 C1.32 0 2.64 0 4 0 C4 0.99 4 1.98 4 3 C6.97 3.495 6.97 3.495 10 4 C10.33 5.65 10.66 7.3 11 9 C9.66144944 8.21718695 8.32926356 7.42348123 7 6.625 C6.2575 6.18414062 5.515 5.74328125 4.75 5.2890625 C4.1725 4.86367187 3.595 4.43828125 3 4 C3 3.34 3 2.68 3 2 C2.01 1.67 1.02 1.34 0 1 C0 0.67 0 0.34 0 0 Z " fill="#8ABFA7" transform="translate(170,183)"/>
<path d="M0 0 C1.3357457 3.77371512 0.72408671 6.85831347 0.0625 10.75 C-0.13214844 11.92046875 -0.32679688 13.0909375 -0.52734375 14.296875 C-0.68332031 15.18890625 -0.83929688 16.0809375 -1 17 C-1.33 17 -1.66 17 -2 17 C-2.33 12.05 -2.66 7.1 -3 2 C-2.01 2 -1.02 2 0 2 C0 1.34 0 0.68 0 0 Z " fill="#88C3A6" transform="translate(285,149)"/>
<path d="M0 0 C0 0.99 0 1.98 0 3 C1.32 3.33 2.64 3.66 4 4 C4 4.99 4 5.98 4 7 C2.68 7.33 1.36 7.66 0 8 C0 7.34 0 6.68 0 6 C-0.66 6 -1.32 6 -2 6 C-2.66 4.35 -3.32 2.7 -4 1 C-2.68 0.67 -1.36 0.34 0 0 Z " fill="#73B999" transform="translate(91,410)"/>
<path d="M0 0 C-0.25 1.875 -0.25 1.875 -1 4 C-2.8125 5.3125 -2.8125 5.3125 -5 6 C-7.13671875 5.54296875 -7.13671875 5.54296875 -9 5 C-7.87926138 4.16094435 -6.75325453 3.32892169 -5.625 2.5 C-4.99851562 2.0359375 -4.37203125 1.571875 -3.7265625 1.09375 C-2 0 -2 0 0 0 Z " fill="#85BCA6" transform="translate(319,238)"/>
<path d="M0 0 C0.99 0 1.98 0 3 0 C2.01 4.29 1.02 8.58 0 13 C-0.33 11.68 -0.66 10.36 -1 9 C-1.66 8.67 -2.32 8.34 -3 8 C-2.67 7.34 -2.34 6.68 -2 6 C-1.34 6 -0.68 6 0 6 C0 4.02 0 2.04 0 0 Z " fill="#84BAA3" transform="translate(135,197)"/>
<path d="M0 0 C0.66 1.32 1.32 2.64 2 4 C2.66 4 3.32 4 4 4 C4.33 5.32 4.66 6.64 5 8 C4.34 8 3.68 8 3 8 C2.67 8.66 2.34 9.32 2 10 C2 9.34 2 8.68 2 8 C1.34 7.67 0.68 7.34 0 7 C-1.26229508 2.52459016 -1.26229508 2.52459016 0 0 Z " fill="#71B699" transform="translate(450,177)"/>
<path d="M0 0 C4.61513112 1.31860889 8.09897612 3.21355437 12 6 C11.34 6.66 10.68 7.32 10 8 C9.67 7.01 9.34 6.02 9 5 C6.68529088 4.27129528 4.3494053 3.60760482 2 3 C1.01 2.34 0.02 1.68 -1 1 C-0.67 0.67 -0.34 0.34 0 0 Z " fill="#7DB59C" transform="translate(263,21)"/>
<path d="M0 0 C0.99 0.33 1.98 0.66 3 1 C2.67 1.99 2.34 2.98 2 4 C1.34 4 0.68 4 0 4 C-0.66 5.32 -1.32 6.64 -2 8 C-2.33 8 -2.66 8 -3 8 C-3.36923077 3.44615385 -3.36923077 3.44615385 -1.5 1.1875 C-1.005 0.795625 -0.51 0.40375 0 0 Z " fill="#7FBAA1" transform="translate(132,394)"/>
<path d="M0 0 C0.99 0 1.98 0 3 0 C3.99 2.64 4.98 5.28 6 8 C5.01 8 4.02 8 3 8 C0 2.25 0 2.25 0 0 Z " fill="#77B699" transform="translate(130,338)"/>
<path d="M0 0 C-1 2 -1 2 -4 4 C-4.99 4 -5.98 4 -7 4 C-7.33 2.68 -7.66 1.36 -8 0 C-5.13822943 -1.43088528 -3.06624227 -0.59991697 0 0 Z " fill="#60B392" transform="translate(319,266)"/>
<path d="M0 0 C0.33 0.66 0.66 1.32 1 2 C5.455 1.505 5.455 1.505 10 1 C5.5 5 5.5 5 1 5 C0.67 3.35 0.34 1.7 0 0 Z " fill="#7FB59C" transform="translate(295,197)"/>
<path d="M0 0 C-0.66 1.65 -1.32 3.3 -2 5 C-4 5 -6 5 -8 5 C-7.67 3.68 -7.34 2.36 -7 1 C-4.50935112 0.31292445 -2.62113708 0 0 0 Z " fill="#62B38E" transform="translate(217,96)"/>
<path d="M0 0 C-3.21561653 3.21561653 -5.12843777 3.97094793 -9.75 4.125 C-11.35875 4.063125 -11.35875 4.063125 -13 4 C-9.38656695 0.38656695 -4.97659681 -0.29274099 0 0 Z " fill="#85BEA6" transform="translate(237,19)"/>
<path d="M0 0 C0.33 0 0.66 0 1 0 C1 2.97 1 5.94 1 9 C0.01 9 -0.98 9 -2 9 C-3 6 -3 6 -1.5625 2.8125 C-1.046875 1.884375 -0.53125 0.95625 0 0 Z " fill="#75BA9A" transform="translate(259,438)"/>
<path d="M0 0 C2.125 0.375 2.125 0.375 4 1 C2.25 5.875 2.25 5.875 0 7 C-0.66 5.35 -1.32 3.7 -2 2 C-1.34 1.34 -0.68 0.68 0 0 Z " fill="#6DB594" transform="translate(293,409)"/>
<path d="M0 0 C0.33 0.66 0.66 1.32 1 2 C0.34 2 -0.32 2 -1 2 C-1 2.66 -1 3.32 -1 4 C-3.3125 5.6875 -3.3125 5.6875 -6 7 C-6.99 6.67 -7.98 6.34 -9 6 C-8.67 5.01 -8.34 4.02 -8 3 C-7.34 3 -6.68 3 -6 3 C-3.98413316 2.03238392 -1.98246398 1.03432904 0 0 Z " fill="#88C2A7" transform="translate(305,383)"/>
<path d="M0 0 C0.66 0 1.32 0 2 0 C1.49701212 4.40114397 -0.08772731 6.71195019 -3 10 C-3.99 9.67 -4.98 9.34 -6 9 C-4.7934375 7.88625 -4.7934375 7.88625 -3.5625 6.75 C-1.23011409 4.24695171 -0.36465606 3.2819045 0 0 Z " fill="#7CB9A0" transform="translate(142,358)"/>
<path d="M0 0 C1.8844171 3.7688342 2.33429462 5.68012475 2.625 9.75 C2.69976562 10.73484375 2.77453125 11.7196875 2.8515625 12.734375 C2.92503906 13.85585938 2.92503906 13.85585938 3 15 C2.01 14.67 1.02 14.34 0 14 C0 9.38 0 4.76 0 0 Z " fill="#81BBA4" transform="translate(425,330)"/>
<path d="M0 0 C0.99 0.33 1.98 0.66 3 1 C1.52307692 5.67692308 1.52307692 5.67692308 -1.125 7.3125 C-2.053125 7.6528125 -2.053125 7.6528125 -3 8 C-1.125 1.125 -1.125 1.125 0 0 Z " fill="#6FB798" transform="translate(189,330)"/>
<path d="M0 0 C0.66 0.99 1.32 1.98 2 3 C1.23056641 6.15467773 0.67047831 7.58588104 -2.125 9.3125 C-3.053125 9.6528125 -3.053125 9.6528125 -4 10 C-2.8905928 6.51329166 -1.73662334 3.22515763 0 0 Z " fill="#90C6AD" transform="translate(356,323)"/>
<path d="M0 0 C0.33 0 0.66 0 1 0 C1 1.98 1 3.96 1 6 C-0.98 6.99 -2.96 7.98 -5 9 C-4.67 7.68 -4.34 6.36 -4 5 C-3.34 5 -2.68 5 -2 5 C-1.34 3.35 -0.68 1.7 0 0 Z " fill="#80BAA0" transform="translate(198,324)"/>
<path d="M0 0 C2.15546298 3.23319447 2.68074747 5.16896958 3 9 C2.01 10.485 2.01 10.485 1 12 C0.01 11.67 -0.98 11.34 -2 11 C-2 10.34 -2 9.68 -2 9 C-1.34 8.67 -0.68 8.34 0 8 C-0.185625 7.05125 -0.37125 6.1025 -0.5625 5.125 C-1 2 -1 2 0 0 Z " fill="#62B192" transform="translate(196,315)"/>
<path d="M0 0 C0 3.21518097 -0.1621112 4.41024759 -2 7 C-5.125 8.25 -5.125 8.25 -8 9 C-6.90101298 5.70303895 -6.05402613 4.95329411 -3.4375 2.8125 C-2.79683594 2.28269531 -2.15617187 1.75289063 -1.49609375 1.20703125 C-0.75552734 0.60955078 -0.75552734 0.60955078 0 0 Z " fill="#85BEA5" transform="translate(111,274)"/>
<path d="M0 0 C2.3125 0.5625 2.3125 0.5625 5 2 C6.34776978 4.27962623 7.11364216 6.48087772 8 9 C7.01 9 6.02 9 5 9 C4.34 7.02 3.68 5.04 3 3 C2.34 3 1.68 3 1 3 C0.67 2.01 0.34 1.02 0 0 Z " fill="#83BCA5" transform="translate(269,46)"/>
<path d="M0 0 C0.99 0.33 1.98 0.66 3 1 C3.33 2.98 3.66 4.96 4 7 C2.02 7.99 2.02 7.99 0 9 C-0.66 8.34 -1.32 7.68 -2 7 C-0.68 6.67 0.64 6.34 2 6 C1.34 4.02 0.68 2.04 0 0 Z " fill="#89BDA6" transform="translate(277,389)"/>
<path d="M0 0 C0.33 0 0.66 0 1 0 C1.05437607 1.58294782 1.09296271 3.16644256 1.125 4.75 C1.14820313 5.63171875 1.17140625 6.5134375 1.1953125 7.421875 C0.99139502 10.1135858 0.36551721 11.69904974 -1 14 C-2.59789351 9.04653013 -1.28306814 4.86717585 0 0 Z " fill="#8BBFA9" transform="translate(409,365)"/>
<path d="M0 0 C1.32 0 2.64 0 4 0 C4 0.66 4 1.32 4 2 C3.34 2 2.68 2 2 2 C1.71125 2.639375 1.4225 3.27875 1.125 3.9375 C0 6 0 6 -2 7 C-1.125 1.125 -1.125 1.125 0 0 Z " fill="#90C2AD" transform="translate(108,299)"/>
<path d="M0 0 C2.29633824 3.44450737 2.54016485 5.93812283 3 10 C1.35 8.35 -0.3 6.7 -2 5 C-1.34 3.35 -0.68 1.7 0 0 Z " fill="#67B492" transform="translate(220,299)"/>
<path d="M0 0 C0.33 1.32 0.66 2.64 1 4 C-0.32 4.33 -1.64 4.66 -3 5 C-3.33 6.32 -3.66 7.64 -4 9 C-4.66 9 -5.32 9 -6 9 C-4.68775452 5.06326356 -3.08089673 2.77280706 0 0 Z " fill="#8AC0A7" transform="translate(93,292)"/>
<path d="M0 0 C0.33 0 0.66 0 1 0 C1 1.98 1 3.96 1 6 C1.556875 5.67 2.11375 5.34 2.6875 5 C5.30284522 3.8690399 7.1806646 3.84337026 10 4 C9.01 4.33 8.02 4.66 7 5 C7 5.66 7 6.32 7 7 C4.69 7 2.38 7 0 7 C0 4.69 0 2.38 0 0 Z " fill="#92C4AF" transform="translate(128,266)"/>
<path d="M0 0 C2.33294775 -0.04241723 4.66702567 -0.04092937 7 0 C8 1 8 1 8.09765625 2.84765625 C8.04882812 5.92382812 8.04882812 5.92382812 8 9 C7.67 9 7.34 9 7 9 C6.67 7.02 6.34 5.04 6 3 C4.02 2.34 2.04 1.68 0 1 C0 0.67 0 0.34 0 0 Z " fill="#67A387" transform="translate(364,236)"/>
<path d="M0 0 C1.22589844 0.15275391 1.22589844 0.15275391 2.4765625 0.30859375 C3.41628906 0.43427734 3.41628906 0.43427734 4.375 0.5625 C1.47407498 2.49645001 0.47825263 2.86381941 -2.8125 3.1875 C-4.070625 3.31125 -5.32875 3.435 -6.625 3.5625 C-6.625 2.5725 -6.625 1.5825 -6.625 0.5625 C-4.10446405 -0.69776798 -2.7707902 -0.35624445 0 0 Z " fill="#7DB69D" transform="translate(112.625,154.4375)"/>
<path d="M0 0 C1.5625 1.8125 1.5625 1.8125 3 4 C2.67 4.99 2.34 5.98 2 7 C0.35 6.67 -1.3 6.34 -3 6 C-2.67 5.01 -2.34 4.02 -2 3 C-1.34 3 -0.68 3 0 3 C0 2.01 0 1.02 0 0 Z " fill="#66AA8B" transform="translate(212,119)"/>
<path d="M0 0 C4 0 4 0 8 1 C5.69 2.65 3.38 4.3 1 6 C1 4.68 1 3.36 1 2 C0.34 1.67 -0.32 1.34 -1 1 C-0.67 0.67 -0.34 0.34 0 0 Z " fill="#78B79D" transform="translate(220,41)"/>
<path d="M0 0 C2.15377564 2.62198774 3.40072174 4.64404172 4 8 C2.68 8 1.36 8 0 8 C-1.125 2.25 -1.125 2.25 0 0 Z " fill="#76B49C" transform="translate(92,384)"/>
<path d="M0 0 C0.99 0.33 1.98 0.66 3 1 C3 1.99 3 2.98 3 4 C4.32 4.33 5.64 4.66 7 5 C6.67 5.66 6.34 6.32 6 7 C3.36 5.68 0.72 4.36 -2 3 C-2 2.34 -2 1.68 -2 1 C-1.34 0.67 -0.68 0.34 0 0 Z " fill="#7DBAA1" transform="translate(291,322)"/>
<path d="M0 0 C1.98 0.99 1.98 0.99 4 2 C3.67 4.97 3.34 7.94 3 11 C2.67 11 2.34 11 2 11 C0.80712589 7.12315913 0 4.08378077 0 0 Z " fill="#8AC0A8" transform="translate(115,298)"/>
<path d="M0 0 C1.98 0 3.96 0 6 0 C6 0.66 6 1.32 6 2 C6.99 2.33 7.98 2.66 9 3 C8.67 3.66 8.34 4.32 8 5 C5.36 3.68 2.72 2.36 0 1 C0 0.67 0 0.34 0 0 Z " fill="#87BFA9" transform="translate(193,199)"/>
<path d="M0 0 C0.99 0.33 1.98 0.66 3 1 C2.38125 1.2475 1.7625 1.495 1.125 1.75 C-1.37818306 3.22246063 -1.83045281 4.41028837 -3 7 C-3.99 7.495 -3.99 7.495 -5 8 C-5 6.68 -5 5.36 -5 4 C-4.01 4 -3.02 4 -2 4 C-2 3.01 -2 2.02 -2 1 C-1.34 0.67 -0.68 0.34 0 0 Z " fill="#87BFA3" transform="translate(76,173)"/>
<path d="M0 0 C0.66 0.99 1.32 1.98 2 3 C0.8125 4.5 0.8125 4.5 -1 6 C-3.6875 6.1875 -3.6875 6.1875 -6 6 C-4 4 -2 2 0 0 Z " fill="#76B79A" transform="translate(318,165)"/>
<path d="M0 0 C0.99 0 1.98 0 3 0 C1.7508258 3.45925163 0.32472205 6.14693203 -2 9 C-2.125 5.625 -2.125 5.625 -2 2 C-1.34 1.34 -0.68 0.68 0 0 Z " fill="#88BCA4" transform="translate(285,426)"/>
<path d="M0 0 C0 0.66 0 1.32 0 2 C-0.99 2.33 -1.98 2.66 -3 3 C-4.37195574 4.29355827 -5.71182656 5.62298702 -7 7 C-7.99 6.67 -8.98 6.34 -10 6 C-8.71283353 4.99421411 -7.42011342 3.99553202 -6.125 3 C-5.40570313 2.443125 -4.68640625 1.88625 -3.9453125 1.3125 C-2 0 -2 0 0 0 Z " fill="#93C5AC" transform="translate(189,314)"/>
<path d="M0 0 C1.32 0 2.64 0 4 0 C3.67 1.32 3.34 2.64 3 4 C3.66 4 4.32 4 5 4 C4.67 5.65 4.34 7.3 4 9 C2.00902154 6.01353231 1.05875074 3.40312738 0 0 Z " fill="#74B799" transform="translate(402,319)"/>
<path d="M0 0 C3 3 3 3 3.07421875 5.04296875 C2.71614583 7.02864583 2.35807292 9.01432292 2 11 C1.67 11 1.34 11 1 11 C0.67 7.37 0.34 3.74 0 0 Z " fill="#80B6A1" transform="translate(206,314)"/>
<path d="M0 0 C1.67542976 0.28604898 3.34385343 0.61781233 5 1 C3.25 3 3.25 3 1 5 C-0.32 5 -1.64 5 -3 5 C-1.125 1.125 -1.125 1.125 0 0 Z " fill="#6BB694" transform="translate(340,265)"/>
<path d="M0 0 C1.98 0.99 1.98 0.99 4 2 C4 4.31 4 6.62 4 9 C1.49701566 6.06171403 0.53069061 3.82097239 0 0 Z " fill="#7FBBA2" transform="translate(354,179)"/>
<path d="M0 0 C0.66 0 1.32 0 2 0 C2 0.66 2 1.32 2 2 C3.2065625 2.433125 3.2065625 2.433125 4.4375 2.875 C7 4 7 4 8 6 C5.36 5.34 2.72 4.68 0 4 C0 2.68 0 1.36 0 0 Z " fill="#83BBA2" transform="translate(189,175)"/>
<path d="M0 0 C2.64 0 5.28 0 8 0 C6.515 1.98 6.515 1.98 5 4 C1.125 2.25 1.125 2.25 0 0 Z " fill="#91C3AE" transform="translate(99,425)"/>
<path d="M0 0 C1.65 0.33 3.3 0.66 5 1 C3.515 3.475 3.515 3.475 2 6 C1.67 5.01 1.34 4.02 1 3 C0.34 2.67 -0.32 2.34 -1 2 C-0.67 1.34 -0.34 0.68 0 0 Z " fill="#73BA99" transform="translate(353,357)"/>
<path d="M0 0 C0.33 0 0.66 0 1 0 C1.625 2.8125 1.625 2.8125 2 6 C1.01 7.485 1.01 7.485 0 9 C-0.66 8.67 -1.32 8.34 -2 8 C-1.125 2.25 -1.125 2.25 0 0 Z " fill="#78BAA0" transform="translate(361,311)"/>
<path d="M0 0 C2.97 0.495 2.97 0.495 6 1 C5.67 2.65 5.34 4.3 5 6 C2.83852297 4.91926148 1.58960328 3.80636736 0 2 C0 1.34 0 0.68 0 0 Z " fill="#74B298" transform="translate(162,251)"/>
<path d="M0 0 C-0.33 0.66 -0.66 1.32 -1 2 C-3.64860427 2.59355614 -6.29197322 2.74209269 -9 3 C-7.01532024 -0.96935951 -3.9567243 -1.41311582 0 0 Z " fill="#7EB7A0" transform="translate(333,232)"/>
<path d="M0 0 C1.88391785 3.26545761 2.49287967 6.28111761 3 10 C1.02 10 -0.96 10 -3 10 C-2.01 9.34 -1.02 8.68 0 8 C0.36297936 6.02252878 0.36297936 6.02252878 0.1875 3.875 C0.125625 2.59625 0.06375 1.3175 0 0 Z " fill="#78A995" transform="translate(256,203)"/>
<path d="M0 0 C1.04449911 3.13349732 0.93423645 3.98968256 0 7 C-1.32 7.33 -2.64 7.66 -4 8 C-2.87548273 5.0280615 -1.77706209 2.66559313 0 0 Z " fill="#82BEA3" transform="translate(134,162)"/>
<path d="M0 0 C0.66 1.32 1.32 2.64 2 4 C0.35 4.66 -1.3 5.32 -3 6 C-3 6.66 -3 7.32 -3 8 C-3.66 7.67 -4.32 7.34 -5 7 C-3.35 4.69 -1.7 2.38 0 0 Z " fill="#7FBEA2" transform="translate(332,147)"/>
<path d="M0 0 C2.64 0.99 5.28 1.98 8 3 C5 5 5 5 2.3125 4.625 C1.549375 4.41875 0.78625 4.2125 0 4 C0 2.68 0 1.36 0 0 Z " fill="#7EBD9F" transform="translate(410,144)"/>
<path d="M0 0 C2.50037734 2.17424117 3.43628586 3.73045798 4 7 C2.68 6.34 1.36 5.68 0 5 C0 3.35 0 1.7 0 0 Z M0 6 C0 9 0 9 0 9 Z " fill="#82C0A4" transform="translate(226,418)"/>
<path d="M0 0 C0.66 0 1.32 0 2 0 C1.8125 2.875 1.8125 2.875 1 6 C-1.5625 7.375 -1.5625 7.375 -4 8 C-2.68 5.36 -1.36 2.72 0 0 Z " fill="#86C3A8" transform="translate(272,415)"/>
<path d="M0 0 C1.32 0 2.64 0 4 0 C4 0.66 4 1.32 4 2 C3.34 2 2.68 2 2 2 C1.34 3.32 0.68 4.64 0 6 C-0.33 6 -0.66 6 -1 6 C-1.042721 4.33388095 -1.04063832 2.66617115 -1 1 C-0.67 0.67 -0.34 0.34 0 0 Z " fill="#7FC0A4" transform="translate(108,419)"/>
<path d="M0 0 C0.66 0.66 1.32 1.32 2 2 C0.35 3.65 -1.3 5.3 -3 7 C-3.1875 4.625 -3.1875 4.625 -3 2 C-2.01 1.34 -1.02 0.68 0 0 Z " fill="#78B99B" transform="translate(352,362)"/>
<path d="M0 0 C0.99 0.33 1.98 0.66 3 1 C3 1.99 3 2.98 3 4 C1.02 4.33 -0.96 4.66 -3 5 C-3 4.34 -3 3.68 -3 3 C-2.34 3 -1.68 3 -1 3 C-0.67 2.01 -0.34 1.02 0 0 Z " fill="#79BB9F" transform="translate(161,336)"/>
<path d="M0 0 C1.32 0.33 2.64 0.66 4 1 C4 3.31 4 5.62 4 8 C1.84622436 5.37801226 0.59927826 3.35595828 0 0 Z " fill="#8BBFA6" transform="translate(194,285)"/>
<path d="M0 0 C2.33944736 0.28730055 4.6739143 0.61936779 7 1 C7 1.66 7 2.32 7 3 C4.125 3.125 4.125 3.125 1 3 C0.34 2.34 -0.32 1.68 -1 1 C-0.67 0.67 -0.34 0.34 0 0 Z " fill="#5CA582" transform="translate(363,273)"/>
<path d="M0 0 C0.66 1.32 1.32 2.64 2 4 C0.02 4.99 -1.96 5.98 -4 7 C-4 6.01 -4 5.02 -4 4 C-3.34 4.33 -2.68 4.66 -2 5 C-2.33 4.01 -2.66 3.02 -3 2 C-2.01 1.34 -1.02 0.68 0 0 Z " fill="#7EBBA1" transform="translate(173,269)"/>
<path d="M0 0 C0.99 0.33 1.98 0.66 3 1 C3.33 2.65 3.66 4.3 4 6 C2.68 6.33 1.36 6.66 0 7 C0 4.69 0 2.38 0 0 Z " fill="#68AC8E" transform="translate(202,202)"/>
<path d="M0 0 C2.64 0.33 5.28 0.66 8 1 C8 1.99 8 2.98 8 4 C2.25 2.25 2.25 2.25 0 0 Z " fill="#7BB89C" transform="translate(298,121)"/>
<path d="M0 0 C1.32 0 2.64 0 4 0 C4 1.32 4 2.64 4 4 C4.99 4 5.98 4 7 4 C7 4.66 7 5.32 7 6 C5.68 5.67 4.36 5.34 3 5 C3 4.34 3 3.68 3 3 C2.34 3 1.68 3 1 3 C0.67 2.01 0.34 1.02 0 0 Z " fill="#8EC1AC" transform="translate(230,460)"/>
<path d="M0 0 C0.99 0.33 1.98 0.66 3 1 C3.33 3.31 3.66 5.62 4 8 C2.68 7.67 1.36 7.34 0 7 C0 4.69 0 2.38 0 0 Z " fill="#50A880" transform="translate(289,409)"/>
<path d="M0 0 C3 1 3 1 5 2 C5 2.99 5 3.98 5 5 C3.02 4.34 1.04 3.68 -1 3 C-0.67 2.01 -0.34 1.02 0 0 Z " fill="#7EBAA1" transform="translate(182,395)"/>
<path d="M0 0 C2.15377564 2.62198774 3.40072174 4.64404172 4 8 C1 7 1 7 -0.6875 3.9375 C-1.120625 2.968125 -1.55375 1.99875 -2 1 C-1.34 0.67 -0.68 0.34 0 0 Z " fill="#76B59A" transform="translate(214,285)"/>
<path d="M0 0 C0.75 1.75 0.75 1.75 1 4 C-0.9375 6.25 -0.9375 6.25 -3 8 C-3 4.42424104 -1.91159393 2.94704065 0 0 Z " fill="#8DC5B0" transform="translate(282,274)"/>
<path d="M0 0 C0.99 0.33 1.98 0.66 3 1 C2 3 2 3 0.15234375 3.6328125 C-0.57855469 3.79523438 -1.30945313 3.95765625 -2.0625 4.125 C-2.79597656 4.29257812 -3.52945313 4.46015625 -4.28515625 4.6328125 C-4.85105469 4.75398438 -5.41695312 4.87515625 -6 5 C-4.06745228 2.9754262 -2.36841312 1.57894208 0 0 Z " fill="#80B9A3" transform="translate(163,257)"/>
<path d="M0 0 C1.5625 1.25 1.5625 1.25 3 3 C2.6875 5.1875 2.6875 5.1875 2 7 C1.01 6.67 0.02 6.34 -1 6 C-0.67 4.02 -0.34 2.04 0 0 Z " fill="#66AF8D" transform="translate(307,240)"/>
<path d="M0 0 C2.125 0.9375 2.125 0.9375 4 2 C2.35 3.32 0.7 4.64 -1 6 C-1.33 4.35 -1.66 2.7 -2 1 C-1.34 0.67 -0.68 0.34 0 0 Z " fill="#72B596" transform="translate(328,176)"/>
<path d="M0 0 C0.66 0.99 1.32 1.98 2 3 C1.360625 3.103125 0.72125 3.20625 0.0625 3.3125 C-0.618125 3.539375 -1.29875 3.76625 -2 4 C-2.33 4.99 -2.66 5.98 -3 7 C-3.66 6.67 -4.32 6.34 -5 6 C-5 5.34 -5 4.68 -5 4 C-3.37373596 2.61767557 -1.7074998 1.28062485 0 0 Z " fill="#85C0A7" transform="translate(311,171)"/>
<path d="M0 0 C3.68754757 0.49831724 5.60490662 1.10067643 8 4 C7.01 4.495 7.01 4.495 6 5 C3.98079663 3.69593116 1.98075027 2.36176581 0 1 C0 0.67 0 0.34 0 0 Z " fill="#83BEA2" transform="translate(413,166)"/>
<path d="M0 0 C2 1 4 2 6 3 C5.67 3.66 5.34 4.32 5 5 C3.35 4.67 1.7 4.34 0 4 C0 2.66666667 0 1.33333333 0 0 Z " fill="#90C7B0" transform="translate(321,114)"/>
<path d="M0 0 C0.66 0.33 1.32 0.66 2 1 C0.71937515 2.7074998 -0.61767557 4.37373596 -2 6 C-2.66 6 -3.32 6 -4 6 C-3.6875 4.125 -3.6875 4.125 -3 2 C-2.01 1.34 -1.02 0.68 0 0 Z " fill="#77B498" transform="translate(186,108)"/>
<path d="M0 0 C2.31 0.66 4.62 1.32 7 2 C7 2.33 7 2.66 7 3 C2.545 3.495 2.545 3.495 -2 4 C-2 3.34 -2 2.68 -2 2 C-1.34 2 -0.68 2 0 2 C0 1.34 0 0.68 0 0 Z " fill="#89C2A6" transform="translate(236,34)"/>
</svg>
